<?xml version="1.0" encoding="UTF-8"?>
<svg id="Layer_1" data-name="Layer 1" xmlns="http://www.w3.org/2000/svg" xmlns:xlink="http://www.w3.org/1999/xlink" viewBox="0 0 750 500">
  <defs>
    <style>
      .cls-1 {
        fill: #21112b;
      }

      .cls-2 {
        fill: #51b75c;
      }

      .cls-3 {
        fill: #f0e8cf;
      }

      .cls-4 {
        fill: #e8d7a7;
      }

      .cls-5 {
        font-size: 46.44px;
      }

      .cls-5, .cls-6, .cls-7 {
        fill: #eaad21;
      }

      .cls-5, .cls-7 {
        font-family: Sniglet-Regular, Sniglet;
      }

      .cls-8 {
        fill: #f26550;
      }

      .cls-9, .cls-10, .cls-11 {
        fill: none;
      }

      .cls-12 {
        fill: #3b7bbf;
      }

      .cls-10 {
        clip-path: url(#clippath);
      }

      .cls-11 {
        clip-path: url(#clippath-1);
      }

      .cls-13 {
        fill: #fcd424;
      }

      .cls-7 {
        font-size: 39.72px;
      }
    </style>
    <clipPath id="clippath">
      <rect class="cls-9" width="750" height="197.38"/>
    </clipPath>
    <clipPath id="clippath-1">
      <rect class="cls-9" width="750" height="156.84"/>
    </clipPath>
  </defs>
  <rect class="cls-13" width="750" height="500"/>
  <rect class="cls-6" y="428.83" width="750" height="71.17"/>
  <g class="cls-10">
    <g>
      <path class="cls-3" d="m174.33,87.41c.05,0,.09,0,.09,0-.09,0-.17-.01-.26-.01-1.43-.17-8.72-1.57-10.37-12.02-1.64,10.45-8.93,11.85-10.37,12.02-.09,0-.17.01-.26.01,0,0,.04,0,.09,0-.05,0-.09,0-.09,0,.09,0,.17.01.26.01,1.43.17,8.72,1.57,10.37,12.02,1.64-10.45,8.93-11.85,10.37-12.02.09,0,.17-.01.26-.01,0,0-.04,0-.09,0Z"/>
      <path class="cls-3" d="m180.29,98.35s.05,0,.05,0c-.05,0-.1,0-.16,0-.85-.1-5.2-.93-6.17-7.16-.98,6.23-5.32,7.05-6.17,7.16-.05,0-.1,0-.16,0,0,0,.02,0,.05,0-.03,0-.05,0-.05,0,.05,0,.1,0,.16,0,.85.1,5.2.93,6.17,7.16.98-6.23,5.32-7.05,6.17-7.16.05,0,.1,0,.16,0,0,0-.02,0-.05,0Z"/>
      <path class="cls-3" d="m358.64,20.27s.07,0,.07,0c-.07,0-.13,0-.19,0-1.05-.13-6.42-1.15-7.63-8.85-1.21,7.69-6.58,8.72-7.63,8.85-.07,0-.13.01-.19,0,0,0,.03,0,.07,0-.04,0-.07,0-.07,0,.07,0,.13,0,.19,0,1.05.13,6.42,1.15,7.63,8.85,1.21-7.69,6.58-8.72,7.63-8.85.07,0,.13-.01.19,0,0,0-.03,0-.07,0Z"/>
      <path class="cls-3" d="m575.09,65.72s.04,0,.04,0c-.04,0-.08,0-.13,0-.68-.08-4.13-.74-4.91-5.69-.78,4.95-4.23,5.61-4.91,5.69-.04,0-.08,0-.13,0,0,0,.02,0,.04,0-.03,0-.04,0-.04,0,.04,0,.08,0,.13,0,.68.08,4.13.74,4.91,5.69.78-4.95,4.23-5.61,4.91-5.69.04,0,.08,0,.13,0,0,0-.02,0-.04,0Z"/>
      <path class="cls-3" d="m698.55,106.13s.04,0,.04,0c-.04,0-.08,0-.13,0-.68-.08-4.13-.74-4.91-5.69-.78,4.95-4.23,5.61-4.91,5.69-.04,0-.08,0-.13,0,0,0,.02,0,.04,0-.03,0-.04,0-.04,0,.04,0,.08,0,.13,0,.68.08,4.13.74,4.91,5.69.78-4.95,4.23-5.61,4.91-5.69.04,0,.08,0,.13,0,0,0-.02,0-.04,0Z"/>
      <path class="cls-3" d="m703.7,95.92s.04,0,.04,0c-.04,0-.08,0-.13,0-.68-.08-4.13-.74-4.91-5.69-.78,4.95-4.23,5.61-4.91,5.69-.04,0-.08,0-.13,0,0,0,.02,0,.04,0-.03,0-.04,0-.04,0,.04,0,.08,0,.13,0,.68.08,4.13.74,4.91,5.69.78-4.95,4.23-5.61,4.91-5.69.04,0,.08,0,.13,0,0,0-.02,0-.04,0Z"/>
      <path class="cls-3" d="m698.66,20.49s.04,0,.04,0c-.04,0-.08,0-.13,0-.68-.08-4.13-.74-4.91-5.69-.78,4.95-4.23,5.61-4.91,5.69-.04,0-.08,0-.13,0,0,0,.02,0,.04,0-.03,0-.04,0-.04,0,.04,0,.08,0,.13,0,.68.08,4.13.74,4.91,5.69.78-4.95,4.23-5.61,4.91-5.69.04,0,.08,0,.13,0,0,0-.02,0-.04,0Z"/>
      <path class="cls-3" d="m374.92,10.9s.08,0,.08,0c-.09,0-.16-.01-.25-.01-1.34-.16-8.14-1.46-9.67-11.21-1.53,9.75-8.33,11.05-9.67,11.21-.08,0-.16.01-.25.01,0,0,.03,0,.08,0-.05,0-.08,0-.08,0,.09,0,.16.01.25.01,1.34.16,8.14,1.46,9.67,11.21,1.53-9.75,8.33-11.05,9.67-11.21.08,0,.16-.01.25-.01,0,0-.03,0-.08,0Z"/>
      <path class="cls-3" d="m524.52,23.91s.06,0,.06,0c-.06,0-.12,0-.18,0-.99-.12-6.01-1.08-7.14-8.28-1.13,7.2-6.16,8.16-7.14,8.28-.06,0-.12,0-.18,0,0,0,.03,0,.06,0-.04,0-.06,0-.06,0,.06,0,.12,0,.18,0,.99.12,6.01,1.08,7.14,8.28,1.13-7.2,6.16-8.16,7.14-8.28.06,0,.12,0,.18,0,0,0-.03,0-.06,0Z"/>
      <path class="cls-3" d="m706.43,10.19s.06,0,.06,0c-.06,0-.12,0-.18,0-.99-.12-6.01-1.08-7.14-8.28-1.13,7.2-6.16,8.16-7.14,8.28-.06,0-.12,0-.18,0,0,0,.03,0,.06,0-.04,0-.06,0-.06,0,.06,0,.12,0,.18,0,.99.12,6.01,1.08,7.14,8.28,1.13-7.2,6.16-8.16,7.14-8.28.06,0,.12,0,.18,0,0,0-.03,0-.06,0Z"/>
      <g>
        <path class="cls-3" d="m52.55,38.74c14.75,35.46,40.35,65.34,73.13,85.36,9.66-16.39,19.32-32.78,28.98-49.17-22-13.43-39.18-33.49-49.08-57.29-17.68,7.03-35.35,14.07-53.03,21.1Zm71.89,80.11c-.44.71-1.64.74-2.67.07-1.03-.68-1.49-1.8-1.03-2.5.46-.69,1.64-.71,2.65-.04,1.01.66,1.48,1.77,1.05,2.47Zm-10.15-7c-.49.67-1.68.63-2.66-.12-.98-.74-1.35-1.89-.84-2.55.51-.66,1.69-.59,2.64.14.96.73,1.35,1.86.86,2.53Zm-9.61-7.66c-.53.64-1.72.51-2.64-.3-.92-.81-1.21-1.98-.66-2.6.55-.62,1.72-.47,2.63.32.9.79,1.21,1.94.68,2.58Zm-9.03-8.28c-.58.6-1.76.39-2.62-.48-.86-.87-1.07-2.05-.47-2.63.6-.58,1.75-.35,2.6.5.84.85,1.07,2.01.49,2.61Zm-8.43-8.87c-.62.55-1.78.26-2.58-.66-.8-.92-.92-2.12-.29-2.65.64-.53,1.78-.22,2.56.68.78.91.93,2.08.31,2.63Zm-7.8-9.43c-.66.51-1.8.13-2.53-.84-.73-.98-.77-2.17-.1-2.66.67-.49,1.79-.1,2.51.86.72.96.78,2.14.12,2.64Zm-7.14-9.95c-.69.46-1.81,0-2.47-1.02-.67-1.03-.62-2.22.08-2.66.71-.44,1.8.03,2.45,1.04.65,1.01.63,2.19-.06,2.64Zm-6.45-10.44c-.72.41-1.81-.13-2.4-1.2-.6-1.07-.47-2.26.27-2.65.74-.38,1.8.16,2.38,1.22.58,1.05.48,2.23-.24,2.63Zm-5.73-10.89c-.75.35-1.8-.26-2.32-1.38-.52-1.12-.31-2.3.45-2.63.76-.33,1.79.3,2.3,1.39.51,1.09.33,2.26-.43,2.62Z"/>
        <g>
          <path class="cls-4" d="m64.89,41.74c3.27-1.65,6.59-3.21,9.91-4.76,3.33-1.53,6.66-3.05,10-4.57,3.35-1.48,6.71-2.95,10.06-4.43,3.36-1.46,6.73-2.91,10.12-4.31-3.29,1.61-6.61,3.17-9.92,4.73-3.33,1.53-6.66,3.07-9.98,4.6-3.35,1.49-6.7,2.98-10.05,4.47-3.36,1.46-6.73,2.91-10.14,4.27Z"/>
          <path class="cls-4" d="m68.35,48.72c3.19-1.8,6.42-3.52,9.66-5.23,3.25-1.68,6.51-3.36,9.76-5.04,3.28-1.63,6.56-3.27,9.83-4.91,3.29-1.61,6.58-3.22,9.9-4.78-3.21,1.76-6.44,3.48-9.68,5.19-3.25,1.69-6.5,3.38-9.74,5.07-3.27,1.65-6.54,3.29-9.82,4.94-3.29,1.62-6.58,3.22-9.91,4.75Z"/>
          <path class="cls-4" d="m72.11,55.52c3.1-1.95,6.25-3.82,9.4-5.68,3.17-1.83,6.34-3.67,9.51-5.5,3.2-1.79,6.39-3.57,9.58-5.36,3.21-1.77,6.42-3.53,9.65-5.25-3.12,1.91-6.27,3.78-9.42,5.65-3.16,1.84-6.33,3.68-9.49,5.53-3.19,1.8-6.38,3.6-9.56,5.4-3.2,1.77-6.41,3.53-9.67,5.21Z"/>
          <path class="cls-4" d="m76.17,62.13c3-2.09,6.06-4.11,9.12-6.12,3.08-1.98,6.15-3.96,9.23-5.94,3.11-1.94,6.21-3.87,9.31-5.81,3.12-1.92,6.24-3.83,9.39-5.7-3.03,2.06-6.08,4.08-9.14,6.08-3.07,1.99-6.14,3.98-9.21,5.97-3.1,1.95-6.19,3.9-9.29,5.84-3.11,1.92-6.24,3.83-9.41,5.67Z"/>
          <path class="cls-4" d="m80.52,68.54c2.9-2.23,5.85-4.39,8.82-6.54,2.98-2.12,5.96-4.25,8.94-6.37,3.01-2.08,6.02-4.16,9.02-6.25,3.02-2.06,6.05-4.12,9.1-6.13-2.92,2.2-5.88,4.36-8.84,6.51-2.97,2.13-5.94,4.26-8.92,6.4-3,2.09-6,4.19-9,6.28-3.02,2.07-6.05,4.12-9.13,6.1Z"/>
          <path class="cls-4" d="m85.14,74.73c2.79-2.37,5.64-4.66,8.49-6.95,2.87-2.26,5.75-4.52,8.62-6.78,2.91-2.22,5.81-4.44,8.72-6.67,2.92-2.2,5.84-4.4,8.8-6.56-2.82,2.34-5.66,4.63-8.52,6.92-2.87,2.27-5.74,4.54-8.6,6.81-2.9,2.23-5.79,4.47-8.69,6.7-2.92,2.21-5.84,4.4-8.82,6.53Z"/>
          <path class="cls-4" d="m90.04,80.72c2.68-2.5,5.41-4.93,8.16-7.35,2.76-2.4,5.53-4.79,8.29-7.18,2.8-2.36,5.59-4.71,8.39-7.07,2.81-2.34,5.63-4.67,8.48-6.97-2.7,2.47-5.44,4.89-8.18,7.32-2.76,2.4-5.51,4.81-8.27,7.21-2.79,2.37-5.58,4.73-8.37,7.1-2.81,2.34-5.63,4.68-8.5,6.94Z"/>
          <path class="cls-4" d="m95.21,86.47c2.55-2.62,5.17-5.18,7.8-7.72,2.65-2.52,5.29-5.05,7.94-7.57,2.68-2.49,5.37-4.97,8.05-7.46,2.7-2.47,5.4-4.93,8.14-7.36-2.58,2.59-5.2,5.15-7.82,7.7-2.64,2.53-5.28,5.06-7.92,7.6-2.67,2.5-5.35,4.99-8.02,7.49-2.69,2.47-5.4,4.94-8.17,7.33Z"/>
          <path class="cls-4" d="m100.63,91.99c2.43-2.74,4.92-5.42,7.42-8.09,2.52-2.65,5.05-5.29,7.58-7.94,2.56-2.61,5.12-5.22,7.68-7.84,2.58-2.6,5.16-5.19,7.78-7.74-2.46,2.71-4.95,5.39-7.45,8.06-2.52,2.65-5.03,5.31-7.55,7.97-2.55,2.62-5.1,5.24-7.66,7.86-2.57,2.6-5.16,5.19-7.81,7.71Z"/>
          <path class="cls-4" d="m106.3,97.26c2.3-2.85,4.66-5.65,7.03-8.43,2.4-2.77,4.79-5.53,7.19-8.29,2.44-2.73,4.87-5.46,7.31-8.19,2.45-2.72,4.91-5.43,7.41-8.1-2.33,2.83-4.69,5.62-7.06,8.41-2.39,2.77-4.78,5.54-7.16,8.32-2.42,2.74-4.85,5.48-7.28,8.22-2.45,2.72-4.91,5.43-7.44,8.08Z"/>
          <path class="cls-4" d="m112.21,102.28c2.16-2.96,4.39-5.87,6.63-8.76,2.26-2.88,4.53-5.75,6.79-8.63,2.31-2.84,4.61-5.69,6.91-8.53,2.32-2.83,4.65-5.66,7.02-8.45-2.19,2.94-4.42,5.84-6.66,8.74-2.26,2.88-4.51,5.77-6.76,8.65-2.29,2.85-4.59,5.71-6.88,8.56-2.32,2.83-4.65,5.66-7.05,8.42Z"/>
          <path class="cls-4" d="m118.36,107.04c2.02-3.06,4.11-6.07,6.21-9.07,2.12-2.98,4.25-5.97,6.38-8.95,2.17-2.95,4.33-5.9,6.5-8.86,2.19-2.94,4.38-5.87,6.61-8.78-2.05,3.04-4.14,6.05-6.24,9.05-2.12,2.99-4.23,5.98-6.35,8.97-2.15,2.96-4.31,5.92-6.47,8.88-2.18,2.94-4.37,5.87-6.64,8.75Z"/>
          <path class="cls-4" d="m124.73,111.52c1.87-3.16,3.81-6.27,5.77-9.37,1.98-3.08,3.96-6.17,5.95-9.25,2.03-3.05,4.05-6.11,6.07-9.16,2.04-3.04,4.09-6.08,6.19-9.09-1.9,3.14-3.85,6.24-5.8,9.34-1.97,3.09-3.95,6.18-5.92,9.27-2.01,3.06-4.03,6.12-6.04,9.18-2.04,3.04-4.09,6.08-6.22,9.07Z"/>
        </g>
        <path class="cls-8" d="m60.86,39.09c3.59,7.8,7.66,15.32,12.23,22.49,4.55,7.18,9.61,14.01,15.14,20.43,5.49,6.46,11.45,12.52,17.84,18.12,3.18,2.82,6.48,5.52,9.87,8.11,3.38,2.61,6.87,5.09,10.45,7.46-3.65-2.26-7.2-4.66-10.66-7.17-3.44-2.54-6.78-5.2-10.02-7.97-6.45-5.58-12.47-11.62-18.03-18.07-5.51-6.49-10.55-13.37-15.06-20.61-4.49-7.25-8.45-14.86-11.77-22.78Z"/>
      </g>
      <g>
        <path class="cls-3" d="m525.71-11.56c14.41,34.64,39.42,63.83,71.44,83.38,9.44-16.01,18.87-32.02,28.31-48.03-21.49-13.12-38.27-32.71-47.94-55.96-17.27,6.87-34.53,13.74-51.8,20.61Zm70.22,78.25c-.43.69-1.6.73-2.6.06-1.01-.66-1.45-1.76-1.01-2.44.45-.68,1.6-.69,2.59-.04.99.65,1.45,1.72,1.02,2.42Zm-9.92-6.84c-.48.66-1.64.61-2.6-.11-.96-.73-1.32-1.85-.82-2.49.5-.64,1.65-.58,2.58.13.94.71,1.32,1.81.84,2.47Zm-9.38-7.48c-.52.62-1.68.5-2.58-.29-.9-.79-1.18-1.93-.64-2.54.54-.61,1.68-.46,2.56.31.88.77,1.18,1.89.66,2.52Zm-8.82-8.09c-.56.58-1.71.38-2.56-.47-.84-.85-1.04-2-.46-2.57.58-.57,1.71-.34,2.54.49.82.83,1.04,1.97.48,2.55Zm-8.23-8.67c-.6.54-1.74.25-2.52-.65-.78-.9-.9-2.07-.28-2.59.62-.52,1.74-.22,2.5.67.76.88.9,2.03.3,2.57Zm-7.62-9.21c-.64.49-1.76.13-2.47-.83-.72-.96-.76-2.12-.1-2.6.66-.48,1.75-.09,2.45.84.7.94.76,2.09.12,2.58Zm-6.97-9.72c-.68.45-1.76,0-2.42-1-.65-1-.61-2.17.08-2.6.69-.43,1.76.03,2.39,1.02.64.98.62,2.14-.06,2.58Zm-6.3-10.2c-.71.4-1.77-.12-2.35-1.17-.58-1.05-.46-2.21.26-2.59.72-.38,1.75.16,2.32,1.19.57,1.03.47,2.18-.24,2.57Zm-5.6-10.64c-.74.35-1.76-.25-2.27-1.35-.51-1.09-.31-2.25.44-2.57.75-.32,1.74.29,2.24,1.36.5,1.07.32,2.21-.42,2.55Z"/>
        <g>
          <path class="cls-4" d="m544.82,4.82c3.03-1.9,6.1-3.73,9.18-5.55,3.09-1.79,6.19-3.58,9.29-5.37,3.12-1.75,6.24-3.49,9.36-5.24,3.13-1.73,6.27-3.45,9.43-5.12-3.05,1.87-6.12,3.7-9.2,5.51-3.09,1.8-6.18,3.6-9.27,5.4-3.11,1.76-6.23,3.52-9.34,5.27-3.13,1.73-6.27,3.45-9.45,5.09Z"/>
          <path class="cls-4" d="m548.79,11.28c2.93-2.05,5.92-4.02,8.91-5.97,3-1.94,6.01-3.87,9.02-5.8,3.03-1.89,6.07-3.78,9.1-5.68,3.04-1.87,6.09-3.74,9.17-5.57-2.96,2.01-5.94,3.98-8.93,5.94-3,1.94-6,3.89-9,5.83-3.02,1.9-6.05,3.81-9.08,5.71-3.04,1.88-6.09,3.74-9.19,5.53Z"/>
          <path class="cls-4" d="m553.03,17.54c2.83-2.18,5.72-4.29,8.61-6.39,2.91-2.08,5.82-4.15,8.73-6.22,2.94-2.03,5.88-4.07,8.82-6.1,2.95-2.02,5.91-4.02,8.89-5.99-2.86,2.15-5.74,4.26-8.63,6.36-2.9,2.08-5.81,4.17-8.71,6.25-2.93,2.05-5.86,4.09-8.79,6.13-2.95,2.02-5.91,4.03-8.91,5.96Z"/>
          <path class="cls-4" d="m557.55,23.6c2.73-2.31,5.51-4.56,8.3-6.79,2.81-2.21,5.61-4.42,8.42-6.63,2.84-2.17,5.68-4.34,8.51-6.51,2.85-2.15,5.71-4.3,8.6-6.41-2.75,2.28-5.53,4.52-8.32,6.76-2.8,2.22-5.6,4.44-8.4,6.66-2.83,2.18-5.66,4.36-8.49,6.54-2.85,2.16-5.71,4.3-8.62,6.38Z"/>
          <path class="cls-4" d="m562.34,29.44c2.61-2.44,5.29-4.81,7.97-7.18,2.7-2.34,5.4-4.68,8.1-7.02,2.73-2.3,5.46-4.6,8.2-6.91,2.75-2.29,5.5-4.56,8.28-6.81-2.64,2.41-5.31,4.78-7.99,7.15-2.69,2.35-5.39,4.7-8.08,7.05-2.72,2.31-5.45,4.62-8.17,6.93-2.74,2.29-5.5,4.57-8.31,6.78Z"/>
          <path class="cls-4" d="m567.38,35.06c2.5-2.56,5.05-5.06,7.62-7.55,2.58-2.47,5.17-4.93,7.76-7.39,2.62-2.43,5.24-4.86,7.86-7.29,2.64-2.41,5.27-4.82,7.95-7.19-2.52,2.53-5.08,5.03-7.64,7.52-2.58,2.47-5.16,4.95-7.73,7.42-2.61,2.44-5.22,4.88-7.83,7.31-2.63,2.42-5.27,4.82-7.98,7.16Z"/>
          <path class="cls-4" d="m572.68,40.45c2.37-2.68,4.81-5.29,7.25-7.9,2.47-2.59,4.93-5.17,7.4-7.76,2.5-2.55,5.01-5.1,7.51-7.65,2.52-2.54,5.04-5.07,7.6-7.56-2.4,2.65-4.84,5.26-7.28,7.87-2.46,2.59-4.92,5.19-7.37,7.78-2.49,2.56-4.99,5.12-7.48,7.68-2.52,2.54-5.04,5.07-7.63,7.54Z"/>
          <path class="cls-4" d="m578.22,45.6c2.24-2.79,4.55-5.52,6.87-8.24,2.34-2.7,4.68-5.4,7.03-8.1,2.38-2.67,4.76-5.33,7.14-8,2.4-2.65,4.8-5.3,7.24-7.91-2.27,2.76-4.58,5.49-6.9,8.21-2.33,2.71-4.67,5.42-7,8.13-2.37,2.68-4.74,5.35-7.11,8.03-2.39,2.66-4.79,5.3-7.26,7.89Z"/>
          <path class="cls-4" d="m583.99,50.5c2.11-2.89,4.29-5.73,6.47-8.56,2.21-2.81,4.42-5.62,6.64-8.43,2.25-2.78,4.5-5.56,6.75-8.34,2.27-2.76,4.54-5.52,6.85-8.25-2.14,2.87-4.32,5.7-6.5,8.54-2.2,2.82-4.41,5.63-6.61,8.45-2.24,2.79-4.48,5.57-6.72,8.36-2.26,2.77-4.54,5.53-6.88,8.23Z"/>
          <path class="cls-4" d="m590,55.15c1.97-2.99,4.01-5.93,6.06-8.86,2.08-2.91,4.15-5.83,6.23-8.74,2.12-2.88,4.23-5.77,6.35-8.65,2.13-2.87,4.27-5.74,6.46-8.57-2,2.97-4.04,5.91-6.09,8.84-2.07,2.92-4.14,5.84-6.2,8.76-2.1,2.89-4.21,5.78-6.32,8.67-2.13,2.87-4.27,5.74-6.49,8.55Z"/>
          <path class="cls-4" d="m596.22,59.53c1.83-3.08,3.73-6.12,5.64-9.15,1.93-3.01,3.87-6.02,5.81-9.03,1.98-2.98,3.96-5.97,5.93-8.95,2-2.97,4-5.94,6.04-8.88-1.86,3.06-3.76,6.1-5.67,9.13-1.93,3.02-3.85,6.03-5.78,9.05-1.97,2.99-3.93,5.98-5.9,8.97-1.99,2.97-4,5.94-6.07,8.85Z"/>
        </g>
        <path class="cls-8" d="m533.83-11.22c3.5,7.62,7.48,14.97,11.95,21.97,4.44,7.02,9.39,13.69,14.79,19.96,5.36,6.31,11.19,12.23,17.43,17.7,3.11,2.75,6.33,5.39,9.64,7.92,3.3,2.55,6.71,4.98,10.21,7.28-3.56-2.21-7.03-4.55-10.41-7.01-3.36-2.48-6.63-5.08-9.79-7.79-6.3-5.45-12.18-11.35-17.61-17.65-5.38-6.34-10.3-13.06-14.71-20.13-4.39-7.08-8.25-14.51-11.49-22.25Z"/>
      </g>
      <g>
        <path class="cls-3" d="m383.47,56.19c32.49,10.19,67.38,9.83,99.65-1.03-5.63-15.9-11.25-31.8-16.88-47.7-21.66,7.29-45.07,7.53-66.88.69-5.3,16.01-10.59,32.03-15.89,48.04Zm95.38-3.17c.23.7-.43,1.53-1.48,1.85-1.05.31-2.07-.02-2.28-.72-.21-.71.45-1.52,1.48-1.82,1.03-.31,2.04,0,2.28.7Zm-10.54,2.9c.18.71-.53,1.5-1.6,1.74-1.06.24-2.06-.16-2.21-.88-.16-.72.56-1.48,1.6-1.72,1.04-.23,2.03.14,2.21.86Zm-10.68,2.16c.13.73-.64,1.46-1.71,1.62-1.07.17-2.03-.3-2.14-1.03-.11-.73.66-1.44,1.71-1.6,1.05-.16,2.01.28,2.14,1.01Zm-10.77,1.41c.08.73-.74,1.41-1.82,1.5-1.08.09-2-.44-2.05-1.18-.05-.73.76-1.39,1.82-1.48,1.06-.09,1.98.42,2.05,1.15Zm-10.83.67c.02.74-.84,1.36-1.92,1.37-1.08.02-1.96-.58-1.96-1.32,0-.74.86-1.33,1.92-1.35,1.06-.02,1.94.56,1.96,1.29Zm-10.85-.08c-.03.74-.93,1.3-2.02,1.24-1.08-.06-1.92-.71-1.86-1.45.05-.73.96-1.27,2.02-1.21,1.06.06,1.9.69,1.86,1.42Zm-10.83-.82c-.08.73-1.03,1.23-2.1,1.1-1.08-.13-1.86-.84-1.76-1.57.11-.73,1.05-1.2,2.1-1.07,1.06.13,1.84.82,1.76,1.55Zm-10.76-1.57c-.14.72-1.12,1.16-2.19.95-1.07-.21-1.81-.97-1.65-1.69.16-.72,1.13-1.13,2.18-.92,1.05.2,1.79.94,1.65,1.67Zm-10.66-2.32c-.19.71-1.2,1.07-2.26.79-1.06-.28-1.74-1.1-1.53-1.8.21-.71,1.22-1.04,2.25-.77,1.03.28,1.72,1.07,1.53,1.78Z"/>
        <g>
          <path class="cls-4" d="m392.54,49.51c.75-3.16,1.57-6.3,2.41-9.44.86-3.13,1.73-6.26,2.59-9.39.91-3.12,1.82-6.24,2.72-9.36.93-3.11,1.86-6.23,2.84-9.33-.78,3.15-1.61,6.29-2.44,9.43-.86,3.13-1.71,6.27-2.56,9.4-.9,3.12-1.79,6.25-2.69,9.37-.92,3.12-1.86,6.23-2.87,9.32Z"/>
          <path class="cls-4" d="m399.25,51.14c.6-3.19,1.27-6.37,1.96-9.54.71-3.17,1.43-6.34,2.14-9.5.76-3.16,1.52-6.32,2.27-9.47.78-3.15,1.56-6.31,2.39-9.45-.63,3.19-1.31,6.36-1.99,9.53-.7,3.17-1.41,6.34-2.11,9.51-.74,3.16-1.49,6.32-2.24,9.48-.77,3.15-1.56,6.31-2.42,9.44Z"/>
          <path class="cls-4" d="m406.01,52.46c.44-3.22.97-6.42,1.5-9.62.56-3.2,1.12-6.39,1.69-9.59.61-3.19,1.21-6.38,1.82-9.57.63-3.19,1.26-6.37,1.94-9.55-.48,3.21-1,6.41-1.53,9.61-.55,3.2-1.1,6.4-1.65,9.59-.59,3.19-1.19,6.38-1.78,9.57-.62,3.19-1.26,6.37-1.97,9.54Z"/>
          <path class="cls-4" d="m412.82,53.47c.29-3.23.66-6.46,1.04-9.68.41-3.22.82-6.44,1.23-9.65.46-3.21.91-6.42,1.36-9.64.47-3.21.95-6.42,1.48-9.62-.33,3.23-.7,6.45-1.07,9.67-.4,3.22-.8,6.44-1.19,9.66-.44,3.21-.88,6.43-1.33,9.64-.47,3.21-.95,6.42-1.51,9.62Z"/>
          <path class="cls-4" d="m419.65,54.17c.14-3.24.35-6.48.58-9.71.25-3.23.51-6.47.77-9.7.3-3.23.6-6.46.9-9.69.32-3.23.65-6.46,1.02-9.68-.17,3.24-.39,6.48-.61,9.71-.25,3.23-.49,6.47-.73,9.7-.29,3.23-.58,6.46-.87,9.69-.32,3.23-.65,6.46-1.05,9.68Z"/>
          <path class="cls-4" d="m426.49,54.56c-.02-3.25.04-6.49.12-9.73.1-3.24.2-6.48.31-9.72.15-3.24.3-6.48.44-9.72.17-3.24.34-6.48.56-9.71-.02,3.24-.08,6.49-.15,9.73-.09,3.24-.18,6.48-.27,9.72-.13,3.24-.27,6.48-.41,9.72-.16,3.24-.34,6.48-.59,9.71Z"/>
          <path class="cls-4" d="m433.35,54.64c-.17-3.24-.26-6.48-.34-9.72-.05-3.24-.1-6.48-.15-9.73,0-3.24-.01-6.49-.02-9.73.01-3.24.03-6.49.1-9.73.14,3.24.23,6.48.31,9.72.06,3.24.12,6.48.19,9.73.02,3.24.04,6.48.05,9.73,0,3.24-.03,6.49-.13,9.73Z"/>
          <path class="cls-4" d="m440.2,54.41c-.33-3.23-.57-6.46-.8-9.7-.21-3.24-.41-6.47-.62-9.71-.16-3.24-.32-6.48-.48-9.72-.14-3.24-.27-6.48-.36-9.72.29,3.23.53,6.47.77,9.7.21,3.24.43,6.47.65,9.71.17,3.24.35,6.48.52,9.71.14,3.24.28,6.48.33,9.73Z"/>
          <path class="cls-4" d="m447.04,53.88c-.48-3.21-.88-6.43-1.26-9.65-.36-3.22-.72-6.45-1.08-9.67-.31-3.23-.63-6.46-.94-9.68-.29-3.23-.58-6.46-.82-9.7.44,3.21.84,6.43,1.23,9.65.37,3.22.74,6.44,1.11,9.67.33,3.23.65,6.45.98,9.68.3,3.23.58,6.46.79,9.7Z"/>
          <path class="cls-4" d="m453.85,53.03c-.63-3.19-1.18-6.38-1.72-9.58-.51-3.2-1.02-6.41-1.53-9.61-.47-3.21-.93-6.42-1.4-9.63-.45-3.21-.89-6.43-1.28-9.65.6,3.19,1.14,6.39,1.69,9.59.52,3.2,1.04,6.4,1.57,9.61.48,3.21.96,6.42,1.43,9.63.45,3.21.89,6.43,1.25,9.65Z"/>
          <path class="cls-4" d="m460.63,51.87c-.78-3.15-1.48-6.32-2.17-9.5-.66-3.18-1.33-6.35-1.99-9.53-.62-3.19-1.24-6.37-1.86-9.56-.6-3.19-1.19-6.38-1.74-9.58.75,3.16,1.45,6.33,2.14,9.5.67,3.18,1.35,6.35,2.02,9.52.63,3.18,1.26,6.37,1.89,9.55.6,3.19,1.19,6.38,1.71,9.59Z"/>
          <path class="cls-4" d="m467.36,50.41c-.93-3.12-1.78-6.25-2.63-9.39-.82-3.14-1.63-6.29-2.44-9.43-.77-3.15-1.54-6.31-2.31-9.46-.75-3.16-1.5-6.32-2.19-9.49.9,3.12,1.75,6.26,2.59,9.39.82,3.14,1.65,6.28,2.47,9.42.78,3.15,1.56,6.3,2.34,9.45.75,3.16,1.5,6.32,2.16,9.5Z"/>
          <path class="cls-4" d="m474.03,48.64c-1.08-3.07-2.08-6.16-3.07-9.26-.97-3.1-1.93-6.21-2.89-9.31-.92-3.12-1.84-6.23-2.76-9.35-.9-3.12-1.8-6.24-2.64-9.38,1.05,3.08,2.05,6.17,3.04,9.27.97,3.1,1.95,6.2,2.92,9.3.93,3.11,1.86,6.22,2.79,9.34.9,3.12,1.8,6.24,2.61,9.39Z"/>
        </g>
        <path class="cls-8" d="m388.44,50.74c7.34,2.01,14.77,3.53,22.24,4.51,7.47,1.01,14.99,1.46,22.51,1.36,7.51-.05,15.03-.65,22.48-1.79,3.73-.56,7.44-1.25,11.13-2.08,3.7-.81,7.37-1.76,11.02-2.85-3.62,1.19-7.27,2.24-10.95,3.15-3.68.89-7.4,1.65-11.13,2.26-7.47,1.2-15,1.85-22.55,1.94-7.55.05-15.09-.46-22.58-1.51-7.48-1.08-14.91-2.73-22.17-4.99Z"/>
      </g>
      <g>
        <path class="cls-3" d="m242.62,90.85c32.19-7.37,61.22-24.74,82.93-49.61-12.49-10.56-24.98-21.12-37.47-31.68-14.57,16.7-34.05,28.35-55.66,33.3,3.4,16,6.8,32,10.2,48Zm78.3-49.32c.54.47.39,1.49-.33,2.27-.72.78-1.74,1-2.26.51-.52-.49-.36-1.49.35-2.25.71-.76,1.71-1,2.25-.53Zm-7.41,7.59c.5.51.29,1.52-.48,2.24-.77.72-1.8.87-2.29.35-.48-.53-.26-1.51.5-2.22.76-.71,1.77-.87,2.27-.36Zm-7.88,7.03c.46.54.18,1.53-.64,2.2-.82.66-1.85.74-2.3.18-.45-.56-.15-1.53.65-2.18.8-.65,1.82-.74,2.28-.2Zm-8.33,6.46c.42.58.07,1.54-.79,2.15-.86.61-1.89.61-2.3.02-.4-.59-.04-1.54.8-2.13.84-.59,1.86-.61,2.28-.04Zm-8.74,5.86c.38.6-.04,1.55-.94,2.09-.9.54-1.93.47-2.29-.14-.36-.62.07-1.54.95-2.07.88-.53,1.9-.48,2.27.12Zm-9.12,5.24c.33.63-.15,1.54-1.08,2.02-.93.48-1.95.34-2.27-.3-.31-.64.18-1.53,1.09-2,.92-.47,1.92-.35,2.26.28Zm-9.47,4.61c.29.65-.26,1.53-1.23,1.95-.97.42-1.97.21-2.24-.46-.27-.66.29-1.52,1.24-1.93.95-.41,1.94-.22,2.23.44Zm-9.78,3.95c.24.67-.37,1.51-1.37,1.86-1,.35-1.99.07-2.21-.61-.22-.68.4-1.5,1.37-1.84.98-.34,1.96-.08,2.2.59Zm-10.06,3.28c.19.69-.48,1.49-1.5,1.77-1.02.28-1.99-.07-2.16-.76-.17-.7.51-1.47,1.51-1.75,1-.27,1.96.05,2.15.74Z"/>
        <g>
          <path class="cls-4" d="m246.95,80.83c-.92-3.01-1.77-6.05-2.6-9.09-.81-3.04-1.62-6.09-2.43-9.13-.76-3.06-1.53-6.11-2.3-9.17-.75-3.06-1.49-6.12-2.19-9.2.89,3.02,1.73,6.06,2.57,9.09.82,3.04,1.64,6.08,2.46,9.13.78,3.05,1.56,6.11,2.33,9.16.75,3.06,1.49,6.12,2.15,9.21Z"/>
          <path class="cls-4" d="m253.36,78.91c-1.06-2.96-2.05-5.95-3.03-8.95-.95-3-1.91-6-2.86-9-.91-3.01-1.82-6.03-2.73-9.04-.89-3.02-1.78-6.04-2.62-9.08,1.03,2.98,2.02,5.96,3,8.96.96,3,1.92,6,2.89,8.99.92,3.01,1.84,6.02,2.76,9.03.9,3.02,1.78,6.04,2.59,9.09Z"/>
          <path class="cls-4" d="m259.67,76.7c-1.2-2.91-2.33-5.85-3.45-8.79-1.09-2.95-2.19-5.9-3.28-8.85-1.05-2.97-2.1-5.93-3.16-8.9-1.03-2.97-2.06-5.95-3.05-8.94,1.17,2.92,2.3,5.86,3.42,8.8,1.1,2.95,2.21,5.89,3.31,8.84,1.06,2.96,2.13,5.92,3.19,8.89,1.04,2.97,2.06,5.95,3.02,8.95Z"/>
          <path class="cls-4" d="m265.86,74.22c-1.34-2.85-2.61-5.73-3.86-8.61-1.23-2.89-2.47-5.79-3.7-8.68-1.19-2.91-2.38-5.82-3.58-8.73-1.17-2.92-2.34-5.84-3.47-8.78,1.31,2.86,2.57,5.74,3.83,8.62,1.24,2.89,2.48,5.78,3.73,8.67,1.2,2.91,2.41,5.81,3.61,8.72,1.18,2.92,2.34,5.84,3.44,8.79Z"/>
          <path class="cls-4" d="m271.92,71.47c-1.47-2.78-2.87-5.6-4.27-8.42-1.37-2.83-2.74-5.66-4.1-8.5-1.33-2.85-2.66-5.7-3.99-8.55-1.31-2.86-2.62-5.72-3.88-8.6,1.44,2.8,2.84,5.61,4.24,8.43,1.38,2.83,2.75,5.66,4.13,8.48,1.34,2.85,2.68,5.69,4.02,8.54,1.31,2.86,2.62,5.72,3.85,8.62Z"/>
          <path class="cls-4" d="m277.84,68.44c-1.6-2.71-3.14-5.45-4.66-8.2-1.5-2.76-3-5.53-4.5-8.29-1.46-2.78-2.92-5.57-4.39-8.35-1.44-2.79-2.88-5.59-4.28-8.41,1.57,2.72,3.1,5.47,4.63,8.22,1.51,2.76,3.02,5.52,4.53,8.28,1.47,2.78,2.94,5.56,4.41,8.34,1.45,2.79,2.89,5.59,4.25,8.42Z"/>
          <path class="cls-4" d="m283.62,65.16c-1.73-2.63-3.39-5.3-5.04-7.97-1.63-2.69-3.26-5.38-4.89-8.07-1.59-2.71-3.18-5.42-4.78-8.13-1.58-2.72-3.15-5.45-4.68-8.19,1.7,2.65,3.36,5.32,5.02,7.99,1.64,2.68,3.28,5.37,4.92,8.05,1.6,2.7,3.2,5.41,4.8,8.12,1.58,2.72,3.15,5.45,4.65,8.21Z"/>
          <path class="cls-4" d="m289.25,61.62c-1.85-2.54-3.64-5.13-5.42-7.73-1.76-2.61-3.51-5.22-5.27-7.83-1.72-2.63-3.44-5.27-5.16-7.9-1.7-2.64-3.4-5.29-5.06-7.96,1.82,2.56,3.61,5.15,5.39,7.74,1.76,2.6,3.53,5.21,5.29,7.81,1.73,2.63,3.46,5.25,5.18,7.88,1.71,2.64,3.4,5.29,5.03,7.98Z"/>
          <path class="cls-4" d="m294.71,57.82c-1.97-2.45-3.88-4.96-5.78-7.46-1.88-2.52-3.76-5.05-5.63-7.57-1.84-2.55-3.68-5.1-5.53-7.65-1.83-2.56-3.65-5.12-5.43-7.72,1.94,2.48,3.85,4.98,5.75,7.48,1.88,2.52,3.77,5.03,5.66,7.55,1.85,2.54,3.7,5.08,5.55,7.63,1.83,2.56,3.65,5.12,5.41,7.73Z"/>
          <path class="cls-4" d="m300,53.78c-2.09-2.36-4.11-4.77-6.13-7.18-2-2.43-3.99-4.86-5.99-7.3-1.96-2.46-3.92-4.92-5.89-7.38-1.95-2.47-3.89-4.95-5.79-7.45,2.06,2.38,4.08,4.79,6.1,7.2,2,2.43,4.01,4.85,6.01,7.28,1.97,2.45,3.94,4.9,5.91,7.36,1.95,2.47,3.89,4.95,5.77,7.47Z"/>
          <path class="cls-4" d="m305.11,49.49c-2.2-2.26-4.34-4.57-6.47-6.89-2.11-2.33-4.22-4.67-6.33-7.01-2.08-2.36-4.15-4.73-6.23-7.09-2.06-2.38-4.12-4.76-6.14-7.17,2.17,2.28,4.31,4.59,6.44,6.91,2.12,2.33,4.23,4.66,6.35,6.98,2.09,2.36,4.17,4.71,6.26,7.07,2.06,2.37,4.12,4.76,6.12,7.19Z"/>
          <path class="cls-4" d="m310.03,44.98c-2.3-2.15-4.55-4.36-6.79-6.57-2.22-2.23-4.44-4.47-6.66-6.7-2.19-2.26-4.38-4.53-6.56-6.79-2.17-2.28-4.34-4.56-6.48-6.87,2.28,2.18,4.53,4.38,6.77,6.6,2.23,2.23,4.45,4.45,6.68,6.68,2.2,2.25,4.39,4.51,6.59,6.77,2.18,2.27,4.34,4.56,6.46,6.89Z"/>
          <path class="cls-4" d="m314.75,40.22c-2.41-2.04-4.76-4.14-7.1-6.25-2.33-2.13-4.65-4.25-6.97-6.38-2.29-2.16-4.59-4.32-6.88-6.47-2.28-2.17-4.56-4.35-6.8-6.56,2.38,2.07,4.73,4.17,7.08,6.27,2.33,2.12,4.66,4.24,7,6.36,2.3,2.15,4.61,4.3,6.91,6.45,2.28,2.17,4.56,4.35,6.78,6.58Z"/>
        </g>
        <path class="cls-8" d="m244.12,83.86c7.13-1.91,14.09-4.27,20.83-7.11,6.75-2.81,13.27-6.11,19.51-9.87,6.27-3.72,12.26-7.89,17.94-12.5,2.85-2.29,5.62-4.69,8.3-7.19,2.7-2.49,5.31-5.08,7.83-7.78-2.45,2.76-4.99,5.43-7.62,7.99-2.65,2.55-5.39,5-8.21,7.34-5.66,4.66-11.66,8.89-17.93,12.66-6.29,3.73-12.86,7-19.65,9.78-6.79,2.76-13.81,5.01-21,6.67Z"/>
      </g>
      <g>
        <path class="cls-3" d="m-11.18,191.85c32.19-7.37,61.22-24.74,82.93-49.61-12.49-10.56-24.98-21.12-37.47-31.68C19.7,127.26.22,138.91-21.38,143.86c3.4,16,6.8,32,10.2,48Zm78.3-49.32c.54.47.39,1.49-.33,2.27-.72.78-1.74,1-2.26.51-.52-.49-.36-1.49.35-2.25.71-.76,1.71-1,2.25-.53Zm-7.41,7.59c.5.51.29,1.52-.48,2.24-.77.72-1.8.87-2.28.35-.48-.52-.26-1.51.5-2.22.76-.71,1.77-.87,2.27-.36Zm-7.88,7.03c.46.54.18,1.53-.64,2.2-.82.66-1.85.74-2.3.18-.45-.56-.15-1.53.65-2.18.8-.65,1.82-.74,2.28-.2Zm-8.33,6.46c.42.58.07,1.54-.79,2.15-.86.6-1.89.61-2.3.02-.4-.59-.04-1.54.8-2.13.84-.59,1.86-.61,2.28-.04Zm-8.74,5.86c.38.6-.04,1.55-.94,2.09-.9.54-1.93.47-2.29-.14-.36-.62.07-1.54.95-2.07.88-.53,1.9-.48,2.27.12Zm-9.12,5.24c.33.63-.15,1.54-1.08,2.02-.93.48-1.95.34-2.27-.3-.31-.64.18-1.53,1.09-2,.92-.47,1.92-.35,2.26.28Zm-9.47,4.61c.29.65-.26,1.53-1.23,1.95-.97.42-1.97.21-2.24-.46-.27-.66.29-1.52,1.24-1.93.95-.41,1.94-.22,2.23.43Zm-9.78,3.95c.24.67-.37,1.51-1.37,1.86-1,.35-1.99.07-2.21-.61-.22-.68.4-1.5,1.38-1.84.98-.34,1.96-.08,2.2.59Zm-10.06,3.28c.19.69-.48,1.49-1.5,1.77-1.02.28-1.99-.07-2.16-.76-.17-.7.51-1.47,1.51-1.75,1-.27,1.96.05,2.15.74Z"/>
        <g>
          <path class="cls-4" d="m5.87,177.7c-1.2-2.91-2.33-5.85-3.45-8.79-1.09-2.95-2.19-5.9-3.28-8.85-1.05-2.97-2.1-5.93-3.16-8.9-1.03-2.97-2.06-5.95-3.05-8.94,1.17,2.92,2.3,5.86,3.42,8.8,1.1,2.95,2.21,5.89,3.31,8.84,1.06,2.96,2.13,5.92,3.19,8.89,1.04,2.97,2.06,5.95,3.02,8.95Z"/>
          <path class="cls-4" d="m12.05,175.22c-1.34-2.85-2.61-5.73-3.86-8.61-1.23-2.89-2.47-5.79-3.7-8.68-1.19-2.91-2.38-5.82-3.58-8.73-1.17-2.92-2.34-5.84-3.47-8.78,1.31,2.86,2.57,5.74,3.83,8.62,1.24,2.89,2.48,5.78,3.73,8.67,1.2,2.91,2.41,5.81,3.61,8.72,1.18,2.92,2.34,5.84,3.44,8.79Z"/>
          <path class="cls-4" d="m18.11,172.47c-1.47-2.78-2.87-5.6-4.27-8.42-1.37-2.83-2.74-5.66-4.1-8.5-1.33-2.85-2.66-5.7-3.99-8.55-1.31-2.86-2.62-5.72-3.88-8.6,1.44,2.8,2.84,5.61,4.24,8.43,1.38,2.83,2.75,5.66,4.13,8.48,1.34,2.85,2.68,5.69,4.02,8.54,1.31,2.86,2.62,5.72,3.85,8.62Z"/>
          <path class="cls-4" d="m24.04,169.44c-1.6-2.71-3.14-5.45-4.66-8.2-1.5-2.76-3-5.53-4.5-8.29-1.46-2.78-2.92-5.57-4.39-8.35-1.44-2.79-2.88-5.59-4.28-8.41,1.57,2.72,3.1,5.47,4.63,8.22,1.51,2.76,3.02,5.52,4.53,8.28,1.47,2.78,2.94,5.56,4.41,8.34,1.45,2.79,2.89,5.59,4.25,8.42Z"/>
          <path class="cls-4" d="m29.82,166.16c-1.73-2.63-3.39-5.3-5.04-7.97-1.63-2.69-3.26-5.38-4.89-8.07-1.59-2.71-3.18-5.42-4.78-8.13-1.58-2.72-3.15-5.45-4.68-8.19,1.7,2.65,3.36,5.32,5.02,7.99,1.64,2.68,3.28,5.37,4.92,8.05,1.6,2.7,3.2,5.41,4.8,8.12,1.58,2.72,3.15,5.45,4.65,8.21Z"/>
          <path class="cls-4" d="m35.44,162.62c-1.85-2.54-3.64-5.13-5.42-7.73-1.76-2.61-3.51-5.22-5.27-7.83-1.72-2.63-3.44-5.27-5.16-7.9-1.7-2.64-3.4-5.29-5.06-7.96,1.82,2.56,3.61,5.15,5.39,7.74,1.76,2.6,3.53,5.21,5.29,7.81,1.73,2.63,3.46,5.25,5.18,7.88,1.71,2.64,3.4,5.29,5.03,7.98Z"/>
          <path class="cls-4" d="m40.9,158.82c-1.97-2.45-3.88-4.96-5.78-7.46-1.88-2.52-3.76-5.05-5.63-7.57-1.84-2.55-3.68-5.1-5.53-7.65-1.83-2.56-3.65-5.12-5.43-7.72,1.94,2.47,3.85,4.98,5.75,7.48,1.88,2.52,3.77,5.04,5.66,7.55,1.85,2.54,3.7,5.08,5.55,7.63,1.83,2.56,3.65,5.12,5.41,7.73Z"/>
          <path class="cls-4" d="m46.19,154.78c-2.09-2.36-4.11-4.77-6.13-7.18-2-2.43-3.99-4.86-5.99-7.3-1.96-2.46-3.92-4.92-5.89-7.38-1.95-2.47-3.89-4.95-5.79-7.45,2.06,2.38,4.08,4.79,6.1,7.2,2,2.43,4.01,4.85,6.01,7.28,1.97,2.45,3.94,4.9,5.91,7.36,1.95,2.47,3.89,4.95,5.77,7.47Z"/>
          <path class="cls-4" d="m51.3,150.5c-2.2-2.26-4.34-4.57-6.47-6.89-2.11-2.33-4.22-4.67-6.33-7.01-2.08-2.36-4.15-4.73-6.23-7.09-2.06-2.38-4.12-4.76-6.14-7.17,2.17,2.28,4.31,4.59,6.44,6.91,2.12,2.33,4.23,4.66,6.35,6.98,2.09,2.36,4.17,4.71,6.26,7.07,2.07,2.37,4.12,4.76,6.12,7.19Z"/>
          <path class="cls-4" d="m56.22,145.98c-2.3-2.15-4.55-4.36-6.79-6.57-2.22-2.23-4.44-4.47-6.66-6.7-2.19-2.26-4.38-4.53-6.56-6.79-2.17-2.28-4.34-4.56-6.48-6.87,2.28,2.18,4.53,4.38,6.77,6.6,2.23,2.23,4.45,4.45,6.68,6.68,2.2,2.25,4.39,4.51,6.59,6.77,2.18,2.27,4.34,4.56,6.46,6.89Z"/>
          <path class="cls-4" d="m60.94,141.22c-2.41-2.04-4.76-4.14-7.1-6.25-2.33-2.13-4.65-4.25-6.97-6.38-2.29-2.16-4.59-4.32-6.88-6.47-2.28-2.17-4.56-4.35-6.8-6.56,2.38,2.07,4.73,4.17,7.08,6.27,2.33,2.12,4.66,4.24,7,6.36,2.3,2.15,4.61,4.3,6.91,6.45,2.28,2.17,4.56,4.35,6.78,6.58Z"/>
        </g>
        <path class="cls-8" d="m-9.69,184.86c7.13-1.91,14.09-4.27,20.83-7.11,6.75-2.81,13.27-6.11,19.51-9.87,6.27-3.72,12.26-7.89,17.94-12.5,2.85-2.29,5.62-4.69,8.3-7.19,2.7-2.49,5.31-5.08,7.83-7.78-2.45,2.76-4.99,5.43-7.62,7.99-2.65,2.55-5.39,5-8.21,7.34-5.66,4.66-11.66,8.89-17.93,12.66-6.29,3.73-12.86,7-19.65,9.78-6.79,2.76-13.81,5.01-21,6.67Z"/>
      </g>
      <g>
        <path class="cls-3" d="m674.37,94.78c35.13-8.04,66.81-26.99,90.5-54.15-13.63-11.52-27.26-23.05-40.89-34.57-15.9,18.22-37.16,30.94-60.74,36.34,3.71,17.46,7.42,34.92,11.13,52.38Zm85.45-53.82c.59.52.43,1.63-.36,2.48-.79.85-1.9,1.09-2.47.56-.57-.53-.4-1.63.38-2.46.77-.83,1.87-1.09,2.45-.58Zm-8.08,8.28c.55.56.31,1.66-.53,2.44-.84.79-1.96.95-2.49.38-.53-.57-.28-1.65.55-2.42.83-.77,1.93-.95,2.48-.4Zm-8.6,7.67c.5.59.2,1.67-.7,2.4-.89.72-2.02.81-2.5.2-.49-.61-.16-1.67.71-2.38.87-.71,1.98-.81,2.49-.22Zm-9.09,7.04c.46.63.08,1.68-.86,2.34-.94.66-2.06.66-2.51.02-.44-.64-.05-1.68.87-2.32.92-.65,2.03-.67,2.49-.04Zm-9.54,6.39c.41.66-.04,1.69-1.02,2.28-.98.59-2.1.52-2.5-.15-.39-.67.07-1.68,1.04-2.26.96-.58,2.07-.53,2.48.13Zm-9.95,5.72c.36.69-.16,1.68-1.18,2.21-1.02.53-2.13.37-2.48-.33-.34-.7.19-1.67,1.19-2.19,1-.51,2.1-.38,2.46.3Zm-10.33,5.03c.31.71-.28,1.67-1.34,2.13-1.06.45-2.15.22-2.45-.5-.29-.72.31-1.66,1.35-2.1,1.03-.44,2.12-.24,2.44.47Zm-10.67,4.31c.26.73-.4,1.65-1.49,2.03-1.09.38-2.17.08-2.41-.67-.24-.74.44-1.64,1.5-2.01,1.07-.37,2.14-.09,2.4.64Zm-10.98,3.58c.21.75-.52,1.62-1.64,1.93-1.12.31-2.18-.07-2.36-.83-.18-.76.56-1.6,1.65-1.9,1.09-.3,2.14.05,2.35.81Z"/>
        <g>
          <path class="cls-4" d="m679.09,83.84c-1.01-3.29-1.93-6.6-2.84-9.92-.88-3.32-1.77-6.65-2.65-9.97-.83-3.34-1.67-6.67-2.51-10.01-.82-3.34-1.62-6.68-2.39-10.04.97,3.3,1.89,6.61,2.81,9.92.89,3.32,1.79,6.64,2.68,9.96.85,3.33,1.7,6.66,2.54,10,.82,3.34,1.63,6.68,2.35,10.05Z"/>
          <path class="cls-4" d="m686.1,81.75c-1.16-3.24-2.24-6.5-3.31-9.76-1.04-3.27-2.08-6.55-3.12-9.83-.99-3.29-1.99-6.58-2.98-9.87-.97-3.3-1.94-6.59-2.86-9.91,1.12,3.25,2.2,6.51,3.27,9.77,1.05,3.27,2.1,6.54,3.15,9.81,1.01,3.29,2.01,6.57,3.02,9.86.98,3.3,1.94,6.59,2.83,9.92Z"/>
          <path class="cls-4" d="m692.98,79.34c-1.31-3.18-2.55-6.38-3.77-9.59-1.19-3.22-2.39-6.44-3.58-9.66-1.15-3.24-2.3-6.47-3.45-9.71-1.13-3.24-2.25-6.49-3.33-9.76,1.28,3.19,2.51,6.39,3.73,9.6,1.2,3.22,2.41,6.43,3.61,9.65,1.16,3.23,2.32,6.46,3.48,9.7,1.13,3.24,2.25,6.49,3.29,9.77Z"/>
          <path class="cls-4" d="m699.73,76.63c-1.46-3.11-2.84-6.25-4.22-9.4-1.35-3.16-2.69-6.32-4.03-9.48-1.3-3.18-2.6-6.36-3.9-9.53-1.28-3.19-2.56-6.37-3.79-9.58,1.43,3.12,2.81,6.27,4.18,9.41,1.35,3.15,2.71,6.31,4.07,9.46,1.31,3.17,2.63,6.34,3.94,9.52,1.28,3.18,2.56,6.37,3.75,9.6Z"/>
          <path class="cls-4" d="m706.35,73.63c-1.61-3.04-3.14-6.11-4.66-9.19-1.49-3.09-2.99-6.18-4.48-9.27-1.45-3.11-2.9-6.22-4.35-9.33-1.43-3.12-2.85-6.24-4.23-9.39,1.57,3.05,3.1,6.12,4.62,9.2,1.5,3.09,3,6.17,4.51,9.26,1.46,3.11,2.92,6.21,4.38,9.32,1.43,3.12,2.86,6.24,4.2,9.4Z"/>
          <path class="cls-4" d="m712.81,70.33c-1.75-2.96-3.42-5.95-5.09-8.95-1.64-3.02-3.28-6.03-4.91-9.05-1.59-3.04-3.19-6.08-4.79-9.11-1.58-3.05-3.15-6.1-4.67-9.18,1.72,2.97,3.39,5.97,5.05,8.97,1.65,3.01,3.29,6.02,4.94,9.03,1.61,3.03,3.21,6.06,4.82,9.1,1.58,3.05,3.15,6.1,4.64,9.19Z"/>
          <path class="cls-4" d="m719.12,66.74c-1.89-2.87-3.7-5.78-5.5-8.7-1.78-2.93-3.56-5.87-5.33-8.8-1.74-2.96-3.47-5.92-5.21-8.88-1.72-2.97-3.43-5.94-5.1-8.94,1.85,2.89,3.67,5.8,5.47,8.72,1.79,2.93,3.57,5.86,5.36,8.79,1.75,2.95,3.5,5.9,5.24,8.86,1.72,2.97,3.43,5.94,5.07,8.96Z"/>
          <path class="cls-4" d="m725.25,62.88c-2.02-2.78-3.97-5.6-5.91-8.43-1.92-2.85-3.83-5.69-5.75-8.54-1.87-2.87-3.75-5.75-5.63-8.62-1.86-2.89-3.71-5.77-5.52-8.69,1.99,2.8,3.94,5.62,5.88,8.45,1.92,2.84,3.85,5.68,5.78,8.52,1.89,2.87,3.77,5.73,5.66,8.6,1.86,2.88,3.71,5.77,5.49,8.71Z"/>
          <path class="cls-4" d="m731.22,58.73c-2.15-2.68-4.23-5.41-6.31-8.14-2.05-2.75-4.1-5.51-6.15-8.26-2.01-2.78-4.02-5.56-6.03-8.34-1.99-2.79-3.98-5.59-5.93-8.42,2.12,2.7,4.2,5.43,6.28,8.17,2.06,2.75,4.11,5.49,6.17,8.24,2.02,2.77,4.04,5.55,6.06,8.32,2,2.79,3.98,5.59,5.9,8.44Z"/>
          <path class="cls-4" d="m736.99,54.32c-2.28-2.57-4.49-5.2-6.69-7.84-2.18-2.65-4.36-5.31-6.53-7.96-2.14-2.68-4.28-5.37-6.42-8.05-2.12-2.7-4.24-5.4-6.32-8.13,2.25,2.6,4.46,5.23,6.66,7.86,2.19,2.65,4.37,5.29,6.56,7.94,2.15,2.68,4.3,5.35,6.45,8.03,2.13,2.69,4.24,5.4,6.3,8.15Z"/>
          <path class="cls-4" d="m742.56,49.65c-2.4-2.46-4.73-4.99-7.06-7.52-2.3-2.55-4.61-5.1-6.91-7.65-2.27-2.58-4.53-5.16-6.8-7.74-2.25-2.59-4.5-5.19-6.7-7.82,2.37,2.49,4.7,5.01,7.03,7.54,2.31,2.54,4.62,5.08,6.93,7.62,2.28,2.57,4.55,5.14,6.83,7.72,2.25,2.59,4.5,5.19,6.68,7.85Z"/>
          <path class="cls-4" d="m747.93,44.72c-2.51-2.35-4.97-4.76-7.41-7.17-2.42-2.44-4.85-4.87-7.27-7.31-2.39-2.47-4.77-4.94-7.16-7.41-2.37-2.49-4.74-4.98-7.07-7.5,2.49,2.37,4.94,4.78,7.38,7.2,2.43,2.43,4.86,4.86,7.29,7.29,2.4,2.46,4.79,4.92,7.19,7.39,2.38,2.48,4.74,4.97,7.05,7.52Z"/>
          <path class="cls-4" d="m753.09,39.53c-2.63-2.23-5.19-4.52-7.75-6.82-2.54-2.32-5.08-4.64-7.61-6.96-2.5-2.36-5.01-4.71-7.51-7.06-2.49-2.37-4.97-4.75-7.42-7.16,2.6,2.26,5.16,4.55,7.72,6.84,2.54,2.31,5.09,4.63,7.64,6.94,2.51,2.34,5.03,4.69,7.54,7.04,2.49,2.37,4.98,4.74,7.4,7.18Z"/>
        </g>
        <path class="cls-8" d="m676.01,87.15c7.78-2.08,15.38-4.66,22.73-7.76,7.36-3.07,14.48-6.67,21.29-10.77,6.84-4.06,13.38-8.61,19.58-13.64,3.11-2.5,6.13-5.12,9.06-7.85,2.94-2.71,5.8-5.54,8.55-8.49-2.67,3.01-5.45,5.92-8.32,8.72-2.89,2.78-5.88,5.45-8.96,8.01-6.18,5.08-12.72,9.7-19.56,13.82-6.87,4.07-14.03,7.64-21.44,10.67-7.42,3.01-15.08,5.47-22.92,7.28Z"/>
      </g>
      <g>
        <polygon class="cls-8" points="207.44 28.89 178.15 66.44 160.3 41.77 214.93 20.82 207.44 28.89"/>
        <polygon class="cls-3" points="157.27 31.56 223.59 17.43 165.95 64.3 161.31 45.17 214.93 20.82 160.3 41.77 157.27 31.56"/>
        <g>
          <path class="cls-1" d="m161.31,45.17c17.14-8.52,34.68-16.49,52.38-23.78-17.15,8.52-34.68,16.49-52.38,23.78h0Z"/>
          <path class="cls-1" d="m167.52,63.01c17.9-15.42,36.34-30.42,55.09-44.8-17.9,15.43-36.34,30.42-55.09,44.8h0Z"/>
        </g>
      </g>
      <g>
        <polygon class="cls-12" points="548.57 75.65 509.72 103.19 499.72 74.43 558.06 70.07 548.57 75.65"/>
        <polygon class="cls-3" points="499.75 63.79 567.33 69.31 498.65 97.63 499.71 77.98 558.06 70.07 499.72 74.43 499.75 63.79"/>
        <g>
          <path class="cls-1" d="m499.71,77.98c18.87-3.23,37.95-5.82,57-7.73-18.87,3.24-37.96,5.82-57,7.73h0Z"/>
          <path class="cls-1" d="m500.53,96.86c21.58-9.63,43.55-18.69,65.64-27.07-21.58,9.63-43.55,18.69-65.64,27.07h0Z"/>
        </g>
      </g>
      <g>
        <rect class="cls-8" x="348.02" y="23.1" width="10.86" height="60.82" transform="translate(680.56 -90.68) rotate(147.6)"/>
        <polygon class="cls-3" points="334.55 30.97 336.62 32.58 336.33 29.59 339.15 30.98 339.09 27.83 341.68 29.37 341.1 26.81 343.74 28.07 341.74 24.93 332.02 19.74 332.57 30.75 334.57 33.89 334.55 30.97"/>
        <polygon class="cls-8" points="335.35 21.52 332.02 19.74 332.21 23.52 335.35 21.52"/>
        <polygon class="cls-3" points="368.12 81.88 372.76 78.94 374.33 76.28 371.26 76.57 366.62 79.52 365.05 82.17 368.12 81.88"/>
        <polygon class="cls-8" points="369.26 79.96 370.53 79.15 370.96 78.42 370.12 78.5 368.85 79.31 368.42 80.04 369.26 79.96"/>
        <path class="cls-1" d="m371.26,76.57c-10.24-14.89-19.99-30.24-29.09-45.85,10.24,14.89,19.99,30.24,29.09,45.85h0Z"/>
        <path class="cls-1" d="m366.83,79.38c-10.24-14.89-19.99-30.24-29.09-45.85,10.24,14.89,19.99,30.24,29.09,45.85h0Z"/>
        <path class="cls-1" d="m363.89,69.96c-8.71-12.47-16.92-25.41-24.5-38.61,8.71,12.48,16.92,25.41,24.5,38.61h0Z"/>
      </g>
      <g>
        <rect class="cls-8" x="639.48" y="3.66" width="10.86" height="60.82" transform="translate(54.85 -228.42) rotate(20.96)"/>
        <polygon class="cls-3" points="638.1 62.69 638.16 60.07 635.93 62.09 635.36 58.99 632.87 60.92 632.56 57.92 630.85 59.92 630.29 57.05 628.96 60.52 630.6 71.42 639.1 64.41 640.43 60.94 638.1 62.69"/>
        <polygon class="cls-8" points="630.04 67.68 630.6 71.42 633.52 69.01 630.04 67.68"/>
        <polygon class="cls-3" points="658.92 5.37 653.78 3.4 650.72 3.72 652.78 6.02 657.91 7.98 660.98 7.66 658.92 5.37"/>
        <polygon class="cls-8" points="656.69 5.6 655.28 5.06 654.44 5.15 655.01 5.78 656.42 6.32 657.26 6.23 656.69 5.6"/>
        <path class="cls-1" d="m652.78,6.02c-5.83,17.1-12.34,34.08-19.42,50.71,5.83-17.11,12.34-34.09,19.42-50.71h0Z"/>
        <path class="cls-1" d="m657.68,7.89c-5.83,17.1-12.34,34.08-19.42,50.71,5.83-17.11,12.34-34.09,19.42-50.71h0Z"/>
        <path class="cls-1" d="m651.88,15.88c-4.81,14.43-10.29,28.74-16.35,42.7,4.81-14.44,10.29-28.74,16.35-42.7h0Z"/>
      </g>
      <g>
        <rect class="cls-2" x="177.9" y="86.17" width="10.86" height="60.82" transform="translate(293.04 304.11) rotate(-152.78)"/>
        <polygon class="cls-3" points="193.22 88.87 192.87 91.47 195.31 89.71 195.54 92.85 198.22 91.21 198.2 94.22 200.12 92.42 200.37 95.33 202.07 92.02 201.62 81.02 192.41 87.06 190.71 90.36 193.22 88.87"/>
        <polygon class="cls-2" points="201.77 84.79 201.62 81.02 198.46 83.09 201.77 84.79"/>
        <polygon class="cls-3" points="166.27 143.59 171.16 146.1 174.25 146.11 172.44 143.61 167.56 141.1 164.47 141.08 166.27 143.59"/>
        <polygon class="cls-2" points="168.51 143.59 169.85 144.28 170.7 144.29 170.21 143.6 168.87 142.91 168.02 142.91 168.51 143.59"/>
        <path class="cls-1" d="m172.44,143.61c7.66-16.36,15.98-32.54,24.84-48.29-7.66,16.37-15.98,32.54-24.84,48.29h0Z"/>
        <path class="cls-1" d="m167.78,141.21c7.66-16.36,15.98-32.54,24.83-48.29-7.66,16.37-15.98,32.54-24.83,48.29h0Z"/>
        <path class="cls-1" d="m174.42,133.91c6.35-13.82,13.36-27.45,20.91-40.66-6.36,13.83-13.36,27.45-20.91,40.66h0Z"/>
      </g>
      <g>
        <rect class="cls-2" x="496.12" y="-32.44" width="10.86" height="60.82" transform="translate(948.5 225.54) rotate(-152.78)"/>
        <polygon class="cls-3" points="484.49 24.97 489.38 27.48 492.47 27.5 490.66 24.99 485.78 22.48 482.69 22.47 484.49 24.97"/>
        <polygon class="cls-2" points="486.73 24.98 488.07 25.67 488.92 25.67 488.42 24.98 487.08 24.3 486.24 24.29 486.73 24.98"/>
        <path class="cls-1" d="m490.66,24.99c7.66-16.36,15.98-32.54,24.84-48.29-7.66,16.37-15.98,32.54-24.84,48.29h0Z"/>
        <path class="cls-1" d="m486,22.59c7.66-16.36,15.98-32.54,24.84-48.29-7.66,16.37-15.98,32.54-24.84,48.29h0Z"/>
        <path class="cls-1" d="m492.64,15.29c6.35-13.82,13.36-27.45,20.91-40.66-6.36,13.83-13.36,27.45-20.91,40.66h0Z"/>
      </g>
      <g>
        <rect class="cls-12" x="28.42" y="41.57" width="10.86" height="60.82" transform="translate(102.25 112.6) rotate(145.89)"/>
        <polygon class="cls-3" points="14.29 50.01 16.4 51.57 16.02 48.58 18.88 49.88 18.73 46.74 21.37 48.2 20.71 45.66 23.38 46.84 21.29 43.76 11.42 38.87 12.3 49.85 14.39 52.93 14.29 50.01"/>
        <polygon class="cls-12" points="14.81 40.55 11.42 38.87 11.72 42.63 14.81 40.55"/>
        <polygon class="cls-3" points="49.36 99.9 53.91 96.82 55.4 94.12 52.34 94.5 47.79 97.58 46.3 100.28 49.36 99.9"/>
        <polygon class="cls-12" points="50.44 97.94 51.69 97.1 52.1 96.36 51.26 96.46 50.01 97.31 49.61 98.05 50.44 97.94"/>
        <path class="cls-1" d="m52.34,94.5c-10.68-14.57-20.88-29.63-30.45-44.96,10.69,14.58,20.88,29.63,30.45,44.96h0Z"/>
        <path class="cls-1" d="m48,97.44c-10.68-14.57-20.88-29.63-30.45-44.96,10.69,14.58,20.88,29.63,30.45,44.96h0Z"/>
        <path class="cls-1" d="m44.78,88.11c-9.08-12.21-17.67-24.89-25.64-37.86,9.08,12.21,17.67,24.89,25.64,37.86h0Z"/>
      </g>
      <g>
        <rect class="cls-12" x="717.15" y="110.27" width="10.86" height="60.82" transform="translate(1399.73 -148.07) rotate(145.89)"/>
        <polygon class="cls-3" points="703.01 118.71 705.12 120.26 704.75 117.27 707.61 118.58 707.46 115.44 710.09 116.9 709.43 114.35 712.1 115.53 710.02 112.45 700.15 107.56 701.03 118.54 703.11 121.62 703.01 118.71"/>
        <polygon class="cls-12" points="703.53 109.24 700.15 107.56 700.45 111.33 703.53 109.24"/>
        <polygon class="cls-3" points="738.09 168.6 742.64 165.51 744.13 162.81 741.07 163.19 736.52 166.28 735.03 168.98 738.09 168.6"/>
        <polygon class="cls-12" points="739.17 166.64 740.42 165.79 740.83 165.05 739.99 165.15 738.74 166 738.33 166.74 739.17 166.64"/>
        <path class="cls-1" d="m741.07,163.19c-10.68-14.57-20.88-29.63-30.45-44.96,10.69,14.58,20.88,29.63,30.45,44.96h0Z"/>
        <path class="cls-1" d="m736.72,166.14c-10.68-14.57-20.88-29.63-30.45-44.96,10.69,14.58,20.88,29.63,30.45,44.96h0Z"/>
        <path class="cls-1" d="m733.5,156.81c-9.08-12.21-17.67-24.89-25.64-37.86,9.08,12.21,17.67,24.89,25.64,37.86h0Z"/>
      </g>
    </g>
  </g>
  <g class="cls-11">
    <g>
      <text class="cls-5" transform="translate(79.75 145.27) rotate(-24.16)"><tspan x="0" y="0">A</tspan></text>
      <text class="cls-7" transform="translate(204.2 76.01) rotate(-13.18)"><tspan x="0" y="0">C</tspan></text>
      <text class="cls-7" transform="translate(415.68 107.72) rotate(-13.18)"><tspan x="0" y="0">F</tspan></text>
      <text class="cls-7" transform="translate(623.65 14) rotate(-13.18)"><tspan x="0" y="0">H</tspan></text>
      <text class="cls-7" transform="translate(649.65 101.68) rotate(-13.18)"><tspan x="0" y="0">J</tspan></text>
      <text class="cls-7" transform="translate(718.65 114.26) rotate(-13.18)"><tspan x="0" y="0">K</tspan></text>
      <text class="cls-7" transform="translate(317.66 94.98) rotate(-13.18)"><tspan x="0" y="0">M</tspan></text>
      <text class="cls-7" transform="translate(559.4 91.84) rotate(-129.65)"><tspan x="0" y="0">I</tspan></text>
      <text class="cls-7" transform="translate(301.23 6.12) rotate(34.89)"><tspan x="0" y="0">D</tspan></text>
      <text class="cls-7" transform="translate(510.46 45.97) rotate(34.89)"><tspan x="0" y="0">G</tspan></text>
      <text class="cls-5" transform="translate(169.04 3.22) rotate(-138.33)"><tspan x="0" y="0">B</tspan></text>
      <text class="cls-5" transform="translate(53.67 6.31) rotate(-138.33)"><tspan x="0" y="0">E</tspan></text>
    </g>
  </g>
</svg>