<?xml version="1.0" encoding="UTF-8"?>
<svg id="Layer_1" data-name="Layer 1" xmlns="http://www.w3.org/2000/svg" xmlns:xlink="http://www.w3.org/1999/xlink" viewBox="0 0 750 500">
  <defs>
    <style>
      .cls-1 {
        fill: #ad2524;
      }

      .cls-2 {
        fill: #fcfdfd;
      }

      .cls-3 {
        fill: #0a98b3;
      }

      .cls-4 {
        stroke: #fff;
      }

      .cls-4, .cls-5, .cls-6, .cls-7, .cls-8, .cls-9, .cls-10, .cls-11, .cls-12, .cls-13, .cls-14, .cls-15, .cls-16, .cls-17, .cls-18, .cls-19, .cls-20 {
        fill: none;
      }

      .cls-4, .cls-6, .cls-8, .cls-9, .cls-10, .cls-11, .cls-12, .cls-17, .cls-19 {
        stroke-linecap: round;
        stroke-linejoin: round;
      }

      .cls-4, .cls-6, .cls-9, .cls-10, .cls-11, .cls-12, .cls-17 {
        stroke-width: 1.5px;
      }

      .cls-21 {
        fill: #303542;
      }

      .cls-5, .cls-7, .cls-13, .cls-15, .cls-16, .cls-20 {
        stroke-miterlimit: 10;
      }

      .cls-5, .cls-16 {
        stroke: #fbf7e4;
      }

      .cls-6 {
        stroke: #ad2524;
      }

      .cls-22 {
        fill: #16b057;
      }

      .cls-7, .cls-8 {
        stroke-width: 2px;
      }

      .cls-7, .cls-17 {
        stroke: #34c0ce;
      }

      .cls-8, .cls-13, .cls-19, .cls-20 {
        stroke: #303542;
      }

      .cls-23 {
        fill: #484d5b;
      }

      .cls-24 {
        fill: #0d9ed5;
      }

      .cls-25 {
        fill: #fed527;
      }

      .cls-26 {
        fill: #0e8c45;
      }

      .cls-27, .cls-28 {
        fill: #eaad21;
      }

      .cls-27, .cls-29 {
        font-family: Geometric415BT-BlackA, 'Geometr415 Blk BT';
        font-size: 80.73px;
        font-weight: 800;
      }

      .cls-30 {
        fill: #f0e8cf;
      }

      .cls-9 {
        stroke: #f15a32;
      }

      .cls-10 {
        stroke: #0e8c45;
      }

      .cls-31 {
        fill: #f15a32;
      }

      .cls-32 {
        fill: #b9e1d9;
      }

      .cls-33 {
        fill: #34c0ce;
      }

      .cls-34 {
        fill: #8ccfb1;
      }

      .cls-11 {
        stroke: #fdc330;
      }

      .cls-35 {
        fill: #f39931;
      }

      .cls-12 {
        stroke: #0672b6;
      }

      .cls-13, .cls-15, .cls-16 {
        stroke-width: .75px;
      }

      .cls-15 {
        stroke: #fcfdfd;
      }

      .cls-29 {
        fill: #231f20;
      }

      .cls-18 {
        clip-path: url(#clippath);
      }

      .cls-36 {
        fill: #0672b6;
      }

      .cls-37 {
        fill: #fdc330;
      }

      .cls-38 {
        fill: #fbf7e4;
      }
    </style>
    <clipPath id="clippath">
      <rect class="cls-14" x="768.46" y="-2.46" width="750" height="197.38"/>
    </clipPath>
  </defs>
  <rect class="cls-38" width="750" height="500"/>
  <g class="cls-18">
    <path class="cls-30" d="m757.28,189.39c32.19-7.37,61.22-24.74,82.93-49.61-12.49-10.56-24.98-21.12-37.47-31.68-14.57,16.7-34.05,28.35-55.66,33.3,3.4,16,6.8,32,10.2,48Zm78.3-49.32c.54.47.39,1.49-.33,2.27-.72.78-1.74,1-2.26.51-.52-.49-.36-1.49.35-2.25.71-.76,1.71-1,2.25-.53Zm-7.41,7.59c.5.51.29,1.52-.48,2.24-.77.72-1.8.87-2.28.35-.48-.52-.26-1.51.5-2.22.76-.71,1.77-.87,2.27-.36Zm-7.88,7.03c.46.54.18,1.53-.64,2.2-.82.66-1.85.74-2.3.18-.45-.56-.15-1.53.65-2.18.8-.65,1.82-.74,2.28-.2Zm-8.33,6.46c.42.58.07,1.54-.79,2.15-.86.6-1.89.61-2.3.02-.4-.59-.04-1.54.8-2.13.84-.59,1.86-.61,2.28-.04Zm-8.74,5.86c.38.6-.04,1.55-.94,2.09-.9.54-1.93.47-2.29-.14-.36-.62.07-1.54.95-2.07.88-.53,1.9-.48,2.27.12Zm-9.12,5.24c.33.63-.15,1.54-1.08,2.02-.93.48-1.95.34-2.27-.3-.31-.64.18-1.53,1.09-2,.92-.47,1.92-.35,2.26.28Zm-9.47,4.61c.29.65-.26,1.53-1.23,1.95-.97.42-1.97.21-2.24-.46-.27-.66.29-1.52,1.24-1.93.95-.41,1.94-.22,2.23.43Zm-9.78,3.95c.24.67-.37,1.51-1.37,1.86-1,.35-1.99.07-2.21-.61-.22-.68.4-1.5,1.38-1.84.98-.34,1.96-.08,2.2.59Zm-10.06,3.28c.19.69-.48,1.49-1.5,1.77-1.02.28-1.99-.07-2.16-.76-.17-.7.51-1.47,1.51-1.75,1-.27,1.96.05,2.15.74Z"/>
  </g>
  <g>
    <g>
      <path class="cls-28" d="m37.33,162.46c29.5-3.45,54.96-28.92,58.38-58.43,2-17.24-2.14-36.93,8.92-50.3,15.59-18.85,45.54-8.98,69.88-11.41,26.75-2.68,46.22-20.41,63.04-42.32H0v161.61c12.41.6,25.32,2.26,37.33.85Z"/>
      <path class="cls-28" d="m750,268.97c-18.44,14.36-41.78,23.55-54.19,43.25-20.58,32.67-3.44,82.34-30.93,109.45-28.89,28.49-79.5,6.56-117.02,21.99-19.57,8.05-33.61,25.65-44.06,44.06-2.25,3.96-4.36,8.07-6.31,12.28h252.5v-231.03Z"/>
    </g>
    <path class="cls-35" d="m420.34,465.15c18.85-1.45,20.3,25.37,0,26.1-17.63.63-18.85-24.65,0-26.1Z"/>
    <path class="cls-35" d="m709.72,17.15c14.54-1.12,15.66,19.57,0,20.13-13.6.49-14.54-19.01,0-20.13Z"/>
    <path class="cls-35" d="m137.02,411.5c12.83-.99,13.82,17.27,0,17.76-12,.43-12.83-16.78,0-17.76Z"/>
    <path class="cls-35" d="m304.77,8.8c11.02-.85,11.86,14.83,0,15.25-10.3.37-11.02-14.41,0-15.25Z"/>
    <path class="cls-35" d="m642.45,18.98c5.75-.44,6.19,7.74,0,7.96-5.38.19-5.75-7.52,0-7.96Z"/>
    <path class="cls-35" d="m121.01,67.66c5.75-.44,6.19,7.74,0,7.96-5.38.19-5.75-7.52,0-7.96Z"/>
    <path class="cls-35" d="m19.52,478.38c5.75-.44,6.19,7.74,0,7.96-5.38.19-5.75-7.52,0-7.96Z"/>
    <path class="cls-35" d="m750,154.87c-31.27,4.11-29.32,46.15,0,46.92v-46.92Z"/>
    <path class="cls-35" d="m37.68,198.03c23.54-1.81,25.35,31.69,0,32.59-22.01.79-23.54-30.78,0-32.59Z"/>
    <path class="cls-35" d="m590.86,402.08c5.75-.44,6.19,7.74,0,7.96-5.38.19-5.75-7.52,0-7.96Z"/>
  </g>
  <g>
    <g>
      <path class="cls-21" d="m528.63,72.76s5.4,22.77,7.83,24.16c2.43,1.39,32.37,2.67,50.41-8.01,18.04-10.68,23.12-16.17,22.45-20.1s-12.8-27.32-12.8-27.32l-67.89,31.28Z"/>
      <path class="cls-23" d="m574.97,76.95c4.83-3.37,42.75-51.12,38.75-53.73-4-2.61-58.86-.36-63.9,2.25-5.04,2.61-48.45,40.76-47.9,44.31.56,3.55,68.22,10.55,73.05,7.17Z"/>
      <path class="cls-20" d="m501.92,69.78s56.89,13.16,71.83,7.08c11.47-4.67,40.63-52.29,40.63-52.29"/>
      <path class="cls-37" d="m564.5,43.88s42.27-14.66,46.59-10.91c4.31,3.75,7.84,21.61,7.84,21.61,0,0,14.74,7.47,18.98,12.47l-2.92,2.85-15.23-10.63,12.1,12.72s-10.04,11.37-13,8.07c-2.96-3.3-2.08-25.04-2.08-25.04l-7.53-20.49-44.64,11.97-.11-2.62Z"/>
    </g>
    <path class="cls-20" d="m536.46,96.92s47.52,8.87,73.41-27.18l-6.6-15.57"/>
    <path class="cls-5" d="m512.4,62.1s33.34-32.57,38.99-34.11c5.64-1.54,35.91-3.33,35.91-3.33"/>
    <path class="cls-20" d="m618,57.17s.14,16.91,3.44,22.64"/>
    <path class="cls-20" d="m564.6,46.5s43.87-13.15,44.64-11.97c.77,1.18,7.53,20.49,7.53,20.49"/>
  </g>
  <g>
    <path class="cls-31" d="m152.63,463.74s-106.69-68.09-107.15-67.25c-.46.83-12.5,18.97-11.62,19.45,2.12,1.16,107.02,67.12,107.91,66.16.89-.96,10.86-18.36,10.86-18.36Z"/>
    <path class="cls-1" d="m152.63,463.74s-106.69-68.09-107.15-67.25c-.18.33-2.13,3.3-4.38,6.82l108.39,65.88c1.77-3.06,3.14-5.45,3.14-5.45Z"/>
    <g>
      <g>
        <line class="cls-20" x1="70.63" y1="427.32" x2="64.58" y2="435.76"/>
        <line class="cls-20" x1="71.61" y1="431.93" x2="67.76" y2="437.59"/>
        <line class="cls-20" x1="74.6" y1="433.73" x2="70.75" y2="439.39"/>
        <line class="cls-20" x1="77.6" y1="435.52" x2="73.75" y2="441.19"/>
        <line class="cls-20" x1="80.59" y1="437.32" x2="76.74" y2="442.98"/>
      </g>
      <g>
        <line class="cls-20" x1="56.57" y1="418.52" x2="50.52" y2="426.96"/>
        <line class="cls-20" x1="57.55" y1="423.13" x2="53.7" y2="428.79"/>
        <line class="cls-20" x1="60.54" y1="424.92" x2="56.69" y2="430.59"/>
        <line class="cls-20" x1="63.54" y1="426.72" x2="59.68" y2="432.38"/>
        <line class="cls-20" x1="66.53" y1="428.51" x2="62.68" y2="434.18"/>
      </g>
      <g>
        <line class="cls-20" x1="41.92" y1="408.97" x2="35.86" y2="417.41"/>
        <line class="cls-20" x1="42.9" y1="413.58" x2="39.04" y2="419.24"/>
        <line class="cls-20" x1="45.89" y1="415.37" x2="42.04" y2="421.03"/>
        <line class="cls-20" x1="48.88" y1="417.17" x2="45.03" y2="422.83"/>
        <line class="cls-20" x1="51.88" y1="418.96" x2="48.02" y2="424.63"/>
      </g>
      <g>
        <line class="cls-20" x1="85.69" y1="436.44" x2="79.63" y2="444.88"/>
        <line class="cls-20" x1="86.66" y1="441.04" x2="82.81" y2="446.71"/>
        <line class="cls-20" x1="89.66" y1="442.84" x2="85.8" y2="448.5"/>
        <line class="cls-20" x1="92.65" y1="444.64" x2="88.8" y2="450.3"/>
        <line class="cls-20" x1="95.65" y1="446.43" x2="91.79" y2="452.1"/>
      </g>
      <g>
        <line class="cls-20" x1="100.74" y1="445.55" x2="94.68" y2="453.99"/>
        <line class="cls-20" x1="101.72" y1="450.16" x2="97.86" y2="455.82"/>
        <line class="cls-20" x1="104.71" y1="451.95" x2="100.86" y2="457.62"/>
        <line class="cls-20" x1="107.7" y1="453.75" x2="103.85" y2="459.41"/>
        <line class="cls-20" x1="110.7" y1="455.54" x2="106.84" y2="461.21"/>
      </g>
      <g>
        <line class="cls-20" x1="115.79" y1="454.66" x2="109.74" y2="463.1"/>
        <line class="cls-20" x1="116.77" y1="459.27" x2="112.91" y2="464.93"/>
        <line class="cls-20" x1="119.76" y1="461.06" x2="115.91" y2="466.73"/>
        <line class="cls-20" x1="122.76" y1="462.86" x2="118.9" y2="468.52"/>
        <line class="cls-20" x1="125.75" y1="464.66" x2="121.9" y2="470.32"/>
      </g>
      <g>
        <line class="cls-20" x1="130.84" y1="463.77" x2="124.79" y2="472.21"/>
        <line class="cls-20" x1="131.82" y1="468.38" x2="127.97" y2="474.04"/>
        <line class="cls-20" x1="134.81" y1="470.18" x2="130.96" y2="475.84"/>
        <line class="cls-20" x1="137.81" y1="471.97" x2="133.96" y2="477.64"/>
        <line class="cls-20" x1="140.8" y1="473.77" x2="136.95" y2="479.43"/>
      </g>
    </g>
  </g>
  <g>
    <g>
      <path class="cls-24" d="m652.84,222.07l-2.11-18.37s49.65-29.52,72.58-3.25c22.93,26.27-9.55,62.65-53.92,66.68l-7.12-7.39-3.88-14.86s59.36-15.16,51.59-25.35-48.59,10.56-50.99,8.98c-2.4-1.57-6.14-6.45-6.14-6.45Z"/>
      <path class="cls-24" d="m652.84,222.07l-2.11-18.37s49.65-29.52,72.58-3.25c22.93,26.27-9.55,62.65-53.92,66.68l-7.12-7.39-3.88-14.86s59.36-15.16,51.59-25.35-48.59,10.56-50.99,8.98c-2.4-1.57-6.14-6.45-6.14-6.45Z"/>
      <path class="cls-31" d="m730.44,214.7l-20.77,4.51c.1.11.21.2.3.32,7.77,10.18-51.59,25.35-51.59,25.35l3.88,14.86,7.12,7.39c36.73-3.33,65.3-28.84,61.06-52.42Z"/>
      <path class="cls-36" d="m702.61,211.02c-11.43-3.24-37.65,5.13-49.88,10.07l.11.98s3.73,4.87,6.14,6.45c2.38,1.56,42.31-18.7,50.71-9.28.16-3.39-1.39-6.6-7.08-8.21Z"/>
      <path class="cls-32" d="m670.76,224.91l-5.48-8.91-1.77-18.59c-7.68,3.25-12.78,6.28-12.78,6.28l2.11,18.37s3.73,4.87,6.14,6.45c.77.5,5.48-1.28,11.78-3.6Z"/>
      <path class="cls-34" d="m659.36,228.6c.13,0,.28,0,.47-.03.03,0,.06-.01.08-.01.17-.03.36-.06.57-.11.06-.01.13-.03.19-.04.23-.06.49-.12.76-.2.08-.02.16-.05.25-.07.22-.07.45-.14.7-.21.11-.04.23-.07.35-.11.3-.1.61-.2.94-.31.18-.06.38-.13.57-.2.16-.06.33-.12.5-.18,1.74-.61,3.78-1.37,6.02-2.2l-5.3-8.61c-5.01,1.74-9.48,3.47-12.73,4.78l.09.79.02.19s3.28,4.28,5.67,6.12c.16.12.31.23.46.33.07.04.17.06.29.07.03,0,.06,0,.09,0Z"/>
      <path class="cls-1" d="m730.78,221.52c-14.91,27.55-68.51,38.22-68.51,38.22l7.12,7.39c33.21-3.01,59.75-24.15,61.39-45.61Z"/>
      <path class="cls-32" d="m675.09,256.58l-3.74-15.08-.3-.18c-7.29,2.19-12.66,3.57-12.66,3.57l3.88,14.86,7.12,7.39c4.44-.4,8.76-1.14,12.92-2.14l-7.22-8.4Z"/>
      <path class="cls-34" d="m673.32,266.67c.84-.11,1.68-.23,2.52-.37.22-.04.44-.08.66-.12.85-.15,1.69-.3,2.52-.47.2-.04.4-.09.6-.13.84-.18,1.68-.36,2.51-.56.06-.01.12-.03.18-.05l-7.22-8.39-.03-.13c-7.6,2.25-12.79,3.29-12.79,3.29l7.12,7.39c1.08-.1,2.16-.22,3.23-.35.24-.03.47-.07.7-.1Z"/>
    </g>
    <path class="cls-20" d="m652.73,221.09s40.84-16.21,51.82-9.02c5.08,3.32,7.54,8.12,5.26,11.45-4.37,6.36-17.38,10.78-17.38,10.78"/>
    <path class="cls-20" d="m658.38,244.88l3.88,14.86,7.12,7.39s48.51-4.41,59.87-38.34"/>
    <line class="cls-5" x1="654.04" y1="217.94" x2="652.25" y2="204.65"/>
    <path class="cls-5" d="m660.29,198.55s40.01-18.88,59.47-1.33"/>
    <path class="cls-5" d="m685.26,253.11c12.43-4.57,32.61-13.19,39.06-22.88"/>
    <path class="cls-5" d="m675.09,256.58s1.8-.54,4.72-1.54"/>
  </g>
  <g>
    <g>
      <path class="cls-3" d="m555.48,418.42c.48-2.08-106.58-46.59-107.72-44.45-1.15,2.14-27.44,70.22-24.95,72.14,2.49,1.93,132.19-25.61,132.67-27.69Zm-105.94,6.09c.53-3.74,7.83-29.54,11.08-30.11,3.25-.57,49.37,15.95,47.3,18.18s-58.9,15.66-58.37,11.93Z"/>
      <path class="cls-36" d="m423.99,446.19c13.28-.7,131.04-25.79,131.49-27.77.08-.34-2.68-1.79-7.34-3.98l-124.21,25.04c-.62,2.17-1.04,3.9-1.2,5.05l1.26,1.65Z"/>
      <g>
        <g>
          <line class="cls-20" x1="534.07" y1="420.04" x2="539.12" y2="409.99"/>
          <line class="cls-20" x1="532.25" y1="415.28" x2="535.42" y2="408.57"/>
          <line class="cls-20" x1="528.75" y1="413.86" x2="531.91" y2="407.15"/>
          <line class="cls-20" x1="525.24" y1="412.45" x2="528.41" y2="405.74"/>
          <line class="cls-20" x1="521.74" y1="411.03" x2="524.9" y2="404.32"/>
        </g>
        <g>
          <line class="cls-20" x1="516.44" y1="412.83" x2="521.49" y2="402.79"/>
          <line class="cls-20" x1="514.62" y1="408.07" x2="517.78" y2="401.37"/>
          <line class="cls-20" x1="511.11" y1="406.66" x2="514.28" y2="399.95"/>
          <line class="cls-20" x1="507.61" y1="405.24" x2="510.77" y2="398.54"/>
          <line class="cls-20" x1="504.1" y1="403.83" x2="507.27" y2="397.12"/>
        </g>
        <g>
          <line class="cls-20" x1="498.8" y1="405.63" x2="503.86" y2="395.58"/>
          <line class="cls-20" x1="496.98" y1="400.87" x2="500.15" y2="394.16"/>
          <line class="cls-20" x1="493.48" y1="399.45" x2="496.64" y2="392.75"/>
          <line class="cls-20" x1="489.97" y1="398.04" x2="493.14" y2="391.33"/>
          <line class="cls-20" x1="486.47" y1="396.62" x2="489.63" y2="389.92"/>
        </g>
        <g>
          <line class="cls-20" x1="481.17" y1="398.43" x2="486.22" y2="388.38"/>
          <line class="cls-20" x1="479.35" y1="393.66" x2="482.51" y2="386.96"/>
          <line class="cls-20" x1="475.84" y1="392.25" x2="479.01" y2="385.54"/>
          <line class="cls-20" x1="472.34" y1="390.83" x2="475.5" y2="384.13"/>
          <line class="cls-20" x1="468.83" y1="389.42" x2="472" y2="382.71"/>
        </g>
        <g>
          <line class="cls-20" x1="463.54" y1="391.22" x2="468.59" y2="381.17"/>
          <line class="cls-20" x1="461.72" y1="386.46" x2="464.88" y2="379.75"/>
          <line class="cls-20" x1="458.21" y1="385.04" x2="461.38" y2="378.34"/>
          <line class="cls-20" x1="454.71" y1="383.63" x2="457.87" y2="376.92"/>
          <line class="cls-20" x1="451.2" y1="382.21" x2="454.37" y2="375.51"/>
        </g>
      </g>
    </g>
    <path class="cls-20" d="m553.65,416.95s-102.71-44.33-105.89-42.98c-2.49,1.06-16.8,43.27-22.72,62.18-1.64,5.26-2.23,9.97-2.23,9.97"/>
    <path class="cls-20" d="m460.62,394.4s48.86,15.5,47.3,18.18c-1.56,2.68-38.47,9.57-38.47,9.57"/>
    <path class="cls-5" d="m555.48,418.42s-95.22,22.28-98.89,22.55"/>
  </g>
  <g>
    <g>
      <g>
        <path class="cls-32" d="m631.75,399.32s-3.76,1.47-5.17-1.86c-1.4-3.33,16.46-11.68,18.57-8.37,2.11,3.31-2.25,6.65-2.25,6.65l11.1,20.72s25.25-3.02,34.84,21.66c7.59,19.53-7.24,35.18-32.9,38.97-25.66,3.8-46.93-31.58-15.1-53.44l-9.09-24.31Z"/>
        <path class="cls-20" d="m629.21,396.79s11.14-2.88,13.59-6.51"/>
        <path class="cls-5" d="m638.75,428.1c.67-.53,1.37-1.06,2.11-1.57"/>
        <path class="cls-5" d="m626.91,452.58s-1.06-11.1,8.07-20.98c.55-.6,1.14-1.19,1.77-1.77"/>
        <path class="cls-37" d="m629.98,448.63s3.14,31.17,30.89,24.22c27.75-6.96,30.19-40.42,12.49-48.76,0,0-12.92,17.34-23.07,21.66-10.15,4.32-20.31,2.88-20.31,2.88Z"/>
        <path class="cls-25" d="m631.46,443.26c4.96-5.2,15.33-.07,25.77-7.71,5.24-3.84,12.51-14.88,16.14-11.46,3.63,3.43-4.88,21.46-22.61,26.38-21.68,6.02-23.53-2.77-19.3-7.21Z"/>
      </g>
      <g>
        <g>
          <line class="cls-15" x1="653.77" y1="447.21" x2="659.63" y2="445.24"/>
          <line class="cls-15" x1="654.9" y1="444.65" x2="658.73" y2="443.25"/>
          <line class="cls-15" x1="654.08" y1="442.74" x2="657.91" y2="441.34"/>
          <line class="cls-15" x1="653.25" y1="440.83" x2="657.09" y2="439.43"/>
          <line class="cls-15" x1="652.43" y1="438.92" x2="656.27" y2="437.52"/>
        </g>
        <g>
          <line class="cls-15" x1="657.5" y1="456.36" x2="663.36" y2="454.39"/>
          <line class="cls-15" x1="658.63" y1="453.8" x2="662.46" y2="452.4"/>
          <line class="cls-15" x1="657.81" y1="451.89" x2="661.64" y2="450.49"/>
          <line class="cls-15" x1="656.98" y1="449.98" x2="660.82" y2="448.58"/>
          <line class="cls-15" x1="656.16" y1="448.07" x2="660" y2="446.67"/>
        </g>
        <g>
          <line class="cls-15" x1="661.25" y1="466.08" x2="667.12" y2="464.11"/>
          <line class="cls-15" x1="662.38" y1="463.51" x2="666.22" y2="462.11"/>
          <line class="cls-15" x1="661.56" y1="461.6" x2="665.39" y2="460.2"/>
          <line class="cls-15" x1="660.74" y1="459.69" x2="664.57" y2="458.29"/>
          <line class="cls-15" x1="659.92" y1="457.78" x2="663.75" y2="456.39"/>
        </g>
        <g>
          <line class="cls-15" x1="649.67" y1="437.57" x2="655.53" y2="435.6"/>
          <line class="cls-15" x1="650.8" y1="435.01" x2="654.63" y2="433.61"/>
          <line class="cls-15" x1="649.97" y1="433.1" x2="653.81" y2="431.7"/>
          <line class="cls-15" x1="649.15" y1="431.19" x2="652.99" y2="429.79"/>
          <line class="cls-15" x1="648.33" y1="429.28" x2="652.16" y2="427.88"/>
        </g>
        <g>
          <line class="cls-15" x1="645.56" y1="427.93" x2="651.43" y2="425.96"/>
          <line class="cls-15" x1="646.69" y1="425.37" x2="650.53" y2="423.97"/>
          <line class="cls-15" x1="645.87" y1="423.46" x2="649.71" y2="422.06"/>
          <line class="cls-15" x1="645.05" y1="421.55" x2="648.88" y2="420.15"/>
          <line class="cls-15" x1="644.23" y1="419.64" x2="648.06" y2="418.24"/>
        </g>
        <g>
          <line class="cls-15" x1="641.46" y1="418.29" x2="647.32" y2="416.32"/>
          <line class="cls-15" x1="642.59" y1="415.73" x2="646.43" y2="414.33"/>
          <line class="cls-15" x1="641.77" y1="413.82" x2="645.6" y2="412.42"/>
          <line class="cls-15" x1="640.95" y1="411.91" x2="644.78" y2="410.51"/>
          <line class="cls-15" x1="640.13" y1="410" x2="643.96" y2="408.6"/>
        </g>
        <g>
          <line class="cls-15" x1="637.36" y1="408.65" x2="643.22" y2="406.68"/>
          <line class="cls-15" x1="638.49" y1="406.09" x2="642.32" y2="404.69"/>
          <line class="cls-15" x1="637.67" y1="404.18" x2="641.5" y2="402.78"/>
          <line class="cls-15" x1="636.85" y1="402.27" x2="640.68" y2="400.87"/>
          <line class="cls-15" x1="636.03" y1="400.36" x2="639.86" y2="398.96"/>
        </g>
      </g>
      <path class="cls-20" d="m635.99,472.12s13.19,12.25,34.37,1.49c21.18-10.76,27.48-26.93,11.41-47.04"/>
      <path class="cls-20" d="m632.97,399.43s-5.85,1.91-6.39-1.97c-.54-3.88,11.41-7.96,11.41-7.96"/>
      <path class="cls-20" d="m637.53,397.82s7.47-.74,7.84-6.87"/>
      <path class="cls-20" d="m642.9,395.73l11.1,20.72s10.99.53,14.5,1.79"/>
    </g>
    <g>
      <g>
        <path class="cls-32" d="m700.14,63.1s-5.21,1.17-4.64-2.54c.57-3.71,19.84-10.07,21.4-7.12,1.55,2.95-2.36,3.83-2.36,3.83,0,0,21.43,67.59,20.67,72.44-.76,4.84-9.63,9.82-14.86,4.68-4.21-4.15-20.21-71.29-20.21-71.29Z"/>
        <path class="cls-1" d="m720.64,82.43s12.95,44.35,11.44,47.01c-1.51,2.66-6.14,5.45-9.18,2.48-1.87-1.83-13.96-45.41-13.96-45.41l11.7-4.08Z"/>
        <path class="cls-31" d="m708.36,84.63c.49-2.44,3.62-1.8,6.37-2.23,3.18-.5,6-1.73,5.89.66-.21,4.45-13.32,6.84-12.27,1.58Z"/>
      </g>
      <g>
        <g>
          <line class="cls-15" x1="717.81" y1="112.21" x2="723.37" y2="110.97"/>
          <line class="cls-15" x1="719.09" y1="109.97" x2="722.74" y2="109.06"/>
          <line class="cls-15" x1="718.53" y1="108.14" x2="722.17" y2="107.24"/>
          <line class="cls-15" x1="717.96" y1="106.31" x2="721.6" y2="105.41"/>
          <line class="cls-15" x1="717.39" y1="104.49" x2="721.04" y2="103.58"/>
        </g>
        <g>
          <line class="cls-15" x1="720.33" y1="120.94" x2="725.89" y2="119.71"/>
          <line class="cls-15" x1="721.62" y1="118.7" x2="725.26" y2="117.8"/>
          <line class="cls-15" x1="721.05" y1="116.88" x2="724.7" y2="115.97"/>
          <line class="cls-15" x1="720.48" y1="115.05" x2="724.13" y2="114.14"/>
          <line class="cls-15" x1="719.92" y1="113.22" x2="723.56" y2="112.32"/>
        </g>
        <g>
          <line class="cls-15" x1="722.83" y1="130.2" x2="728.38" y2="128.97"/>
          <line class="cls-15" x1="724.11" y1="127.96" x2="727.76" y2="127.06"/>
          <line class="cls-15" x1="723.55" y1="126.13" x2="727.19" y2="125.23"/>
          <line class="cls-15" x1="722.98" y1="124.3" x2="726.62" y2="123.4"/>
          <line class="cls-15" x1="722.41" y1="122.48" x2="726.06" y2="121.57"/>
        </g>
        <g>
          <line class="cls-15" x1="714.99" y1="102.98" x2="720.55" y2="101.75"/>
          <line class="cls-15" x1="716.28" y1="100.75" x2="719.92" y2="99.84"/>
          <line class="cls-15" x1="715.71" y1="98.92" x2="719.35" y2="98.01"/>
          <line class="cls-15" x1="715.14" y1="97.09" x2="718.79" y2="96.19"/>
          <line class="cls-15" x1="714.58" y1="95.26" x2="718.22" y2="94.36"/>
        </g>
        <g>
          <line class="cls-15" x1="712.17" y1="93.76" x2="717.73" y2="92.53"/>
          <line class="cls-15" x1="713.46" y1="91.52" x2="717.1" y2="90.62"/>
          <line class="cls-15" x1="712.89" y1="89.69" x2="716.54" y2="88.79"/>
          <line class="cls-15" x1="712.33" y1="87.87" x2="715.97" y2="86.96"/>
          <line class="cls-15" x1="711.76" y1="86.04" x2="715.4" y2="85.13"/>
        </g>
        <g>
          <line class="cls-15" x1="709.36" y1="84.54" x2="714.91" y2="83.3"/>
          <line class="cls-15" x1="710.64" y1="82.3" x2="714.29" y2="81.4"/>
          <line class="cls-15" x1="710.08" y1="80.47" x2="713.72" y2="79.57"/>
          <line class="cls-15" x1="709.51" y1="78.64" x2="713.15" y2="77.74"/>
          <line class="cls-15" x1="708.94" y1="76.82" x2="712.59" y2="75.91"/>
        </g>
        <g>
          <line class="cls-15" x1="706.54" y1="75.31" x2="712.1" y2="74.08"/>
          <line class="cls-15" x1="707.82" y1="73.08" x2="711.47" y2="72.17"/>
          <line class="cls-15" x1="707.26" y1="71.25" x2="710.9" y2="70.34"/>
          <line class="cls-15" x1="706.69" y1="69.42" x2="710.34" y2="68.52"/>
          <line class="cls-15" x1="706.13" y1="67.59" x2="709.77" y2="66.69"/>
        </g>
      </g>
      <path class="cls-20" d="m707.56,94.09s10.12,37.89,12.79,40.3,7.88,2.9,11.01.77c4.63-3.15,4.28-9.05,2.42-13.88"/>
      <path class="cls-20" d="m705.24,61.98s-7.87,2.56-9.58.13c-2.29-3.25,9.22-7.29,9.22-7.29"/>
      <path class="cls-20" d="m711.88,58.89s7.62-2.36,5.02-5.45c-2.28-2.71-8.21.52-8.21.52"/>
      <path class="cls-20" d="m698.46,60.94s13.34-3.95,15.64-6.14"/>
    </g>
    <g>
      <g>
        <path class="cls-32" d="m66.27,16.18s-4.82-1.67-3.06-6.7c1.76-5.03,25.87,5.59,25.59,9.01-.28,3.42-5.06,2.79-5.06,2.79l-12.26,32.24s10.54,54.18,3.78,58.49c-6.76,4.3-60.69-9.88-61.78-24.32-.73-9.62,41.3-40.43,41.17-41.25-.14-.82,11.62-30.25,11.62-30.25Z"/>
        <path class="cls-5" d="m50.59,53.23c1.39-.99,2.52-1.69,3.24-1.97"/>
        <path class="cls-5" d="m24.66,75.32s14.02-12.85,22.91-19.82"/>
        <path class="cls-26" d="m43.45,61.01s-27.8,24.85-25.63,28.2c2.17,3.35,49.49,23.38,54.62,17.27,5.13-6.11,2.34-35.55-1.24-36.37-3.58-.82-27.76-9.1-27.76-9.1Z"/>
        <path class="cls-22" d="m43.45,61.01c2.61-4.62,30.97,6.07,29.14,11.3-2.31,6.6-31.74-6.68-29.14-11.3Z"/>
      </g>
      <g>
        <g>
          <line class="cls-15" x1="51.18" y1="76.72" x2="57.57" y2="79.33"/>
          <line class="cls-15" x1="54.01" y1="75.38" x2="58.26" y2="77"/>
          <line class="cls-15" x1="54.71" y1="73.17" x2="58.96" y2="74.79"/>
          <line class="cls-15" x1="55.41" y1="70.96" x2="59.66" y2="72.58"/>
          <line class="cls-15" x1="56.11" y1="68.75" x2="60.37" y2="70.37"/>
        </g>
        <g>
          <line class="cls-15" x1="47.65" y1="87.15" x2="54.03" y2="89.77"/>
          <line class="cls-15" x1="50.48" y1="85.81" x2="54.73" y2="87.44"/>
          <line class="cls-15" x1="51.18" y1="83.6" x2="55.43" y2="85.22"/>
          <line class="cls-15" x1="51.88" y1="81.39" x2="56.13" y2="83.01"/>
          <line class="cls-15" x1="52.58" y1="79.18" x2="56.83" y2="80.8"/>
        </g>
        <g>
          <line class="cls-15" x1="43.73" y1="98.09" x2="50.11" y2="100.7"/>
          <line class="cls-15" x1="46.56" y1="96.75" x2="50.81" y2="98.37"/>
          <line class="cls-15" x1="47.26" y1="94.54" x2="51.51" y2="96.16"/>
          <line class="cls-15" x1="47.96" y1="92.33" x2="52.21" y2="93.95"/>
          <line class="cls-15" x1="48.66" y1="90.12" x2="52.91" y2="91.74"/>
        </g>
        <g>
          <line class="cls-15" x1="54.76" y1="65.59" x2="61.15" y2="68.21"/>
          <line class="cls-15" x1="57.59" y1="64.25" x2="61.84" y2="65.87"/>
          <line class="cls-15" x1="58.29" y1="62.04" x2="62.54" y2="63.66"/>
          <line class="cls-15" x1="58.99" y1="59.83" x2="63.24" y2="61.45"/>
          <line class="cls-15" x1="59.69" y1="57.62" x2="63.94" y2="59.24"/>
        </g>
        <g>
          <line class="cls-15" x1="58.34" y1="54.47" x2="64.72" y2="57.08"/>
          <line class="cls-15" x1="61.17" y1="53.13" x2="65.42" y2="54.75"/>
          <line class="cls-15" x1="61.87" y1="50.92" x2="66.12" y2="52.54"/>
          <line class="cls-15" x1="62.57" y1="48.71" x2="66.82" y2="50.33"/>
          <line class="cls-15" x1="63.27" y1="46.5" x2="67.52" y2="48.12"/>
        </g>
        <g>
          <line class="cls-15" x1="61.92" y1="43.34" x2="68.3" y2="45.96"/>
          <line class="cls-15" x1="64.75" y1="42" x2="69" y2="43.62"/>
          <line class="cls-15" x1="65.45" y1="39.79" x2="69.7" y2="41.41"/>
          <line class="cls-15" x1="66.15" y1="37.58" x2="70.4" y2="39.2"/>
          <line class="cls-15" x1="66.85" y1="35.37" x2="71.1" y2="36.99"/>
        </g>
        <g>
          <line class="cls-15" x1="65.5" y1="32.22" x2="71.88" y2="34.83"/>
          <line class="cls-15" x1="68.33" y1="30.88" x2="72.58" y2="32.5"/>
          <line class="cls-15" x1="69.03" y1="28.67" x2="73.28" y2="30.29"/>
          <line class="cls-15" x1="69.73" y1="26.46" x2="73.98" y2="28.08"/>
          <line class="cls-15" x1="70.43" y1="24.25" x2="74.68" y2="25.87"/>
        </g>
      </g>
      <path class="cls-20" d="m73.2,19.36s-11.55-3.21-9.99-9.88c1.57-6.67,21.69,5.29,22.29,5.56"/>
      <path class="cls-20" d="m67.77,11.48s13,5.41,16.27,5.96"/>
      <path class="cls-20" d="m83.75,21.28l-12.26,32.24s8.72,45.99,5.73,53.97"/>
      <path class="cls-20" d="m13.49,87.68s2.8,11.32,31.28,20.03c26.42,8.08,30.5,4.29,30.5,4.29"/>
    </g>
  </g>
  <g>
    <g>
      <path class="cls-37" d="m199.86,432.66c.62-1.48,40.88-62.59,44.84-61.97,3.96.62,76.71,52.55,77.07,54.95.36,2.4-43.83,65.2-45.64,65.62-1.81.41-76.88-57.11-76.27-58.59Z"/>
      <path class="cls-20" d="m272.51,488.89s2.46,2.56,3.61,2.36c1.15-.2,46.17-62.8,45.64-65.62-.53-2.82-76.13-55.1-77.07-54.95-.94.15-3.34,2.25-3.34,2.25"/>
      <path class="cls-2" d="m194.07,434.39c.92-.97,43.53-64.35,45.6-63.67,2.06.67,74.96,52.38,74.92,56.39-.04,4.02-39.46,63.8-39.46,63.8l-81.06-56.52Z"/>
      <path class="cls-25" d="m190.52,435.58c.62-1.48,40.88-62.59,44.84-61.97,3.96.62,76.71,52.55,77.07,54.95.36,2.4-37.28,63.3-39.1,63.72-1.81.41-83.43-55.21-82.81-56.69Z"/>
      <path class="cls-2" d="m226.37,438.4s-17.01-9.82-16.71-11.42c.3-1.6,25.18-38.24,27.17-37.08,1.99,1.16,15.57,9.86,15.43,11.8-.14,1.94-25.06,37.15-25.89,36.7Z"/>
    </g>
    <path class="cls-20" d="m191.9,436.82c-.12-1.04,78.36,57.26,81.44,55.45,3.08-1.81,40.83-60.87,39.1-63.72-1.74-2.85-60.95-44.44-60.95-44.44"/>
    <path class="cls-23" d="m190.83,443.2s6.19-10.34,7.19-10.13c1,.22,2.64,1.04,2.27,1.63-.37.59-5.69,10.04-6.89,10.31-1.2.27-2.59-.8-2.57-1.82Z"/>
    <path class="cls-23" d="m196.79,447.16s6.19-10.34,7.19-10.13c1,.22,2.64,1.04,2.27,1.63-.37.59-5.69,10.04-6.89,10.31-1.2.27-2.59-.8-2.57-1.82Z"/>
    <path class="cls-23" d="m202.76,451.12s6.19-10.34,7.19-10.13c1,.22,2.64,1.04,2.27,1.63-.37.59-5.69,10.04-6.89,10.31-1.2.27-2.59-.8-2.57-1.82Z"/>
    <path class="cls-23" d="m208.73,455.07s6.19-10.34,7.19-10.13c1,.22,2.64,1.04,2.27,1.63-.37.59-5.69,10.04-6.89,10.31-1.2.27-2.59-.8-2.57-1.82Z"/>
    <path class="cls-23" d="m214.7,459.03s6.19-10.34,7.19-10.13c1,.22,2.64,1.04,2.27,1.63-.37.59-5.69,10.04-6.89,10.31-1.2.27-2.59-.8-2.57-1.82Z"/>
    <path class="cls-23" d="m220.67,462.99s6.19-10.34,7.19-10.13c1,.22,2.64,1.04,2.27,1.63-.37.59-5.69,10.04-6.89,10.31-1.2.27-2.59-.8-2.57-1.82Z"/>
    <path class="cls-23" d="m226.64,466.94s6.19-10.34,7.19-10.13c1,.22,2.64,1.04,2.27,1.63-.37.59-5.69,10.04-6.89,10.31-1.2.27-2.59-.8-2.57-1.82Z"/>
    <path class="cls-23" d="m232.61,470.9s6.19-10.34,7.19-10.13c1,.22,2.64,1.04,2.27,1.63-.37.59-5.69,10.04-6.89,10.31-1.2.27-2.59-.8-2.57-1.82Z"/>
    <path class="cls-23" d="m238.58,474.85s6.19-10.34,7.19-10.13c1,.22,2.64,1.04,2.27,1.63-.37.59-5.69,10.04-6.89,10.31-1.2.27-2.59-.8-2.57-1.82Z"/>
    <path class="cls-23" d="m244.55,478.81s6.19-10.34,7.19-10.13c1,.22,2.64,1.04,2.27,1.63-.37.59-5.69,10.04-6.89,10.31-1.2.27-2.59-.8-2.57-1.82Z"/>
    <path class="cls-23" d="m250.52,482.77s6.19-10.34,7.19-10.13c1,.22,2.64,1.04,2.27,1.63-.37.59-5.69,10.04-6.89,10.31-1.2.27-2.59-.8-2.57-1.82Z"/>
    <path class="cls-23" d="m256.49,486.72s6.19-10.34,7.19-10.13c1,.22,2.64,1.04,2.27,1.63-.37.59-5.69,10.04-6.89,10.31-1.2.27-2.59-.8-2.57-1.82Z"/>
    <path class="cls-23" d="m262.46,490.68s6.19-10.34,7.19-10.13c1,.22,2.64,1.04,2.27,1.63-.37.59-5.69,10.04-6.89,10.31-1.2.27-2.59-.8-2.57-1.82Z"/>
    <path class="cls-16" d="m191.78,443.29s5.76-8.39,6.47-9.09"/>
    <path class="cls-16" d="m197.53,447.28s6.12-8.8,6.68-9.3"/>
    <path class="cls-16" d="m203.94,451.39s5.62-8.82,6.31-9.44"/>
    <path class="cls-16" d="m209.48,455.6s5.8-8.83,6.56-9.43"/>
    <path class="cls-16" d="m215.68,459.38s6.04-8.58,6.76-9.4"/>
    <path class="cls-16" d="m221.33,463.28s3.17-5.47,3.98-6.23"/>
    <path class="cls-16" d="m227.62,467.1s3.82-6.16,4.63-7.05"/>
    <path class="cls-16" d="m233.42,471.41s3.39-5.25,4.13-6.04"/>
    <path class="cls-16" d="m239.37,475.19s3.44-5.86,4.38-6.61"/>
    <path class="cls-16" d="m245.39,479.27s4.03-6.39,4.69-7.08"/>
    <path class="cls-16" d="m251.45,483s3.85-5.66,4.16-6.12"/>
    <path class="cls-16" d="m257.42,486.68s3.89-5.94,4.27-6.3"/>
    <path class="cls-16" d="m263.8,490.92s4.58-6.63,4.93-7.07"/>
  </g>
  <g>
    <g>
      <path class="cls-20" d="m279.52,72.11c2.5-.66,4.22-1.07,4.22-1.07"/>
      <g>
        <g>
          <path class="cls-3" d="m216.34,118.63s-29.24.54-37.63,2.41-23.8,10.67-25.76,7.72c-1.96-2.95-10.35-65.64-7.76-67.5,2.59-1.86,46.12-18.23,60.1-6.53,0,0,21.79-26.75,46.87-26.94,0,0,40.56,58.66,36.88,60.81-3.67,2.15-47.29,13.91-56.68,24.95l-16.03,5.09Z"/>
          <path class="cls-20" d="m176.93,121.59l39.41-2.96,16.03-5.09s12.84-7.93,19.37-11.56c6.54-3.63,36.36-11.76,37.31-13.38.94-1.63-6.24-14.55-6.24-14.55"/>
          <path class="cls-32" d="m192.04,113.32c-7.41.86-35.94,13.65-36.71,11.88s-6.22-68.23-6.22-68.23c0,0,22.15-10.22,30.57-10.5,8.41-.29,25.63,8.26,25.63,8.26l17.5,62.48s-23.35-4.74-30.76-3.88Z"/>
          <path class="cls-32" d="m205.14,55.17c.48-.55,31.52-25.8,50.21-25.61,0,0,29.95,40.58,30.83,43.06,0,0-18.99,7.69-25.85,13.31-6.86,5.62-37.52,31.26-37.52,31.26l-17.67-62.03Z"/>
          <path class="cls-2" d="m205.3,54.72s8.05-14.12,15.92-18.33,16.09-10.2,26.39-10.05l36.12,44.7s-16.52,3.2-26.27,11.27c-9.76,8.07-34.79,35.55-34.66,34.89.13-.67-17.5-62.48-17.5-62.48Z"/>
          <path class="cls-20" d="m205.3,54.72s6.29-12.15,15.92-18.33c9.63-6.18,26.39-10.05,26.39-10.05l11.92,13.77"/>
          <path class="cls-32" d="m239.97,54.73s16.08-6.75,17.37-6.11c1.29.64,11.9,16.08,11.9,16.08,0,0-16.4,6.75-18.33,9.33l-10.94-19.3Z"/>
        </g>
        <path class="cls-20" d="m222.19,116.97s-29.03-7.63-36.8-8.25c-7.77-.62-26.1,8.08-26.1,8.08l-5.59-62.77s17.46-7.98,25.98-7.57c8.51.42,25.63,8.26,25.63,8.26l16.89,62.25Z"/>
        <path class="cls-20" d="m222.19,116.97s34.82-35.48,40.26-38.83c2.38-1.47,6.75-3.01,10.92-4.28"/>
        <path class="cls-20" d="m150.25,73.69l-.99-14.64s-2.66-.31-4.06,2.2c-1.4,2.51,5.5,66.51,7.76,67.5,2.26.99,16.89-4.47,16.89-4.47"/>
      </g>
    </g>
    <path class="cls-20" d="m209.74,59.24s15.12-16.08,21.87-18.65c6.75-2.57,14.47-3.86,14.47-3.86"/>
    <path class="cls-20" d="m214.56,62.45s10.94-10.94,16.4-14.15c5.47-3.22,17.37-5.47,17.37-5.47"/>
    <path class="cls-20" d="m215.21,69.85s12.22-9.65,20.91-11.58"/>
    <path class="cls-20" d="m218.42,75.32s12.22-9.65,20.91-11.58"/>
    <path class="cls-20" d="m221.96,81.43s12.22-9.65,20.91-11.58"/>
  </g>
  <g>
    <g>
      <path class="cls-3" d="m143.79,341.79c-2.14.7-77.9,26.4-80.29,24.3-2.39-2.1-49.64-87.73-47.6-88.98,2.03-1.25,74.03-22.28,74.03-22.28,0,0,56,86.26,53.86,86.96Z"/>
      <path class="cls-2" d="m92.9,249.54s54.33,82.73,53.29,84.27c-1.04,1.54-73.27,28.46-77.82,25.75-4.55-2.7-49.98-85.05-49.96-87.3.02-2.24,74.49-22.73,74.49-22.73Z"/>
      <path class="cls-20" d="m142.01,326.77s5.93,5.14,4.18,7.04c-1.75,1.9-61.4,24.51-77.82,25.75,0,0-16.45-21.34-49.96-87.3l11.35-4.7"/>
      <path class="cls-33" d="m149.51,327.8s-51.33-80.49-55.65-79.66c-4.31.83-72.25,17.52-71.93,21.49.32,3.97,43.88,85.96,48.28,85.56,4.4-.4,79.62-23.42,79.3-27.38Z"/>
      <path class="cls-19" d="m95.56,263.52s43.72,61.06,40.69,62.24c-3.03,1.18-60.98,24.19-63.36,22.58-2.38-1.61-36.58-63.92-34.63-66.07s57.3-18.74,57.3-18.74Z"/>
      <path class="cls-8" d="m84.12,260.62s7.64-9.28-.75-15.3c-6.54-4.69-16.54,1.76-12.92,8.03"/>
      <path class="cls-8" d="m72.7,264.92s7.64-9.28-.75-15.3c-6.54-4.69-16.54,1.76-12.92,8.03"/>
      <path class="cls-8" d="m60.08,268.12s7.64-9.28-.75-15.3c-6.54-4.69-16.54,1.76-12.92,8.03"/>
      <path class="cls-8" d="m48.68,273.08s7.64-9.28-.75-15.3c-6.54-4.69-16.54,1.76-12.92,8.03"/>
      <path class="cls-8" d="m37.56,277.21s7.64-9.28-.75-15.3c-6.54-4.69-16.54,1.76-12.92,8.03"/>
    </g>
    <path class="cls-20" d="m78.98,251.72s-56.32,13.93-57.05,17.91,44.57,86.51,48.28,85.56c47.85-12.29,79.37-27.08,79.37-27.08"/>
  </g>
  <g>
    <g>
      <path class="cls-33" d="m436.29,24.49s11.71-8.53,12.02-7.23c.31,1.3,1.41,7.28.54,8.08-.87.79-9.66,6.46-9.66,6.46l-2.9-7.31Z"/>
      <path class="cls-24" d="m375.33,51.98s-6.91,3.99-6.49,5.31c.42,1.32,8.8,17.35,10.59,16.84,1.79-.51,5.76-2.98,5.76-2.98l-9.85-19.17Z"/>
      <path class="cls-24" d="m418.86,24.81s4.63-3.71,6.07-3.51,7.26,2.88,8.88,2.38c1.63-.5,5.52-3.19,6.19-2.54s5.39,7.04,4.75,7.71c-.65.67-6.14,3.4-6.46,4.61-.33,1.22.65,8.01-.81,9.3-1.46,1.29-6.23,3.74-6.23,3.74l-12.38-21.7Z"/>
      <path class="cls-16" d="m424.64,23.06s7.19,3.31,8.5,2.74c1.31-.57,5.91-2.69,5.91-2.69"/>
      <path class="cls-23" d="m370.97,56.02c-.97-1.76-.41-3.96,1.29-5.03,10.93-6.86,47.93-29.87,49.47-28.19,1.81,1.98,14.24,22.34,12.63,23.61-1.62,1.27-49.93,28.92-51.96,27.74-1.51-.88-8.36-12.6-11.43-18.13Z"/>
      <path class="cls-16" d="m426.65,49.18c-10.86,6.29-37.5,21.51-41.47,21.97"/>
      <path class="cls-16" d="m431.25,46.51s-.84.49-2.29,1.34"/>
      <path class="cls-7" d="m377.22,55.24s41.72-25.31,42.86-24.23c1.14,1.08,7.35,10.01,6.53,11.01-.82.99-41.18,25.34-42.36,24.8-1.18-.54-7.87-10.93-7.04-11.58Z"/>
    </g>
    <path class="cls-20" d="m431.24,39.11s-8.36-15.74-10.4-16.74c-2.04-1.01-48.4,27.8-49.52,28.89-1.12,1.09-.92,7.24,7.89,17.46"/>
    <path class="cls-20" d="m440.01,21.14s5.3,6.49,4.75,7.71-6.08,3.79-6.46,4.61c-.38.83,0,8.44-.81,9.3-.82.86-3.23,2.13-3.23,2.13"/>
    <path class="cls-16" d="m447.5,18.04s.88,6.36.59,6.87"/>
    <path class="cls-20" d="m370.8,54.99s-2,1.28-1.96,2.31c.03,1.03,9.06,16.96,10.19,17,1.14.05,2.35-1.18,2.35-1.18"/>
  </g>
  <g>
    <path class="cls-11" d="m114.9,135.1s.14,11.12.72,12.11c.58.99,2.79,1.16,3.29-.41.5-1.57.64-21.55-.1-22.38-.74-.83-4.63-1.92-5.54.47-.91,2.4-.83,26.95.33,28.44,1.16,1.49,6.37,1.07,7.03-.25.66-1.32,1.16-16.54,1.16-16.54"/>
    <path class="cls-4" d="m571.21,475.44s9.47,5.84,10.61,5.88c1.15.04,2.47-1.73,1.41-2.99-1.06-1.26-17.85-12.09-18.95-11.9-1.1.19-4.11,2.88-2.57,4.93,1.54,2.05,22.32,15.14,24.19,14.96,1.88-.18,4.32-4.8,3.56-6.07s-13.34-9.84-13.34-9.84"/>
    <path class="cls-9" d="m670.87,84.54s.14,11.12.72,12.11c.58.99,2.79,1.16,3.29-.41.5-1.57.64-21.55-.1-22.38-.74-.83-4.63-1.92-5.54.47-.91,2.4-.83,26.95.33,28.44,1.16,1.49,6.37,1.07,7.03-.25.66-1.32,1.16-16.54,1.16-16.54"/>
    <path class="cls-6" d="m346.95,28.4s-5.47,9.68-5.47,10.83c0,1.15,1.83,2.41,3.05,1.3,1.22-1.11,11.39-18.31,11.17-19.39s-3.03-3.99-5.03-2.38-14.27,22.88-14.02,24.75c.25,1.87,4.96,4.13,6.2,3.32,1.24-.81,9.32-13.71,9.32-13.71"/>
    <path class="cls-10" d="m21.93,365.7s.14,11.12.72,12.11c.58.99,2.79,1.16,3.29-.41.5-1.57.64-21.55-.1-22.38-.74-.83-4.63-1.92-5.54.47-.91,2.4-.83,26.95.33,28.44,1.16,1.49,6.37,1.07,7.03-.25.66-1.32,1.16-16.54,1.16-16.54"/>
    <path class="cls-12" d="m358.15,470.05s-8.89,6.69-9.35,7.74c-.46,1.05.71,2.94,2.27,2.41,1.56-.53,17.76-12.22,17.99-13.31.23-1.09-1.19-4.87-3.66-4.19-2.47.68-22.23,15.27-22.75,17.08-.52,1.81,2.9,5.77,4.35,5.52,1.46-.25,14.02-8.84,14.02-8.84"/>
    <path class="cls-17" d="m616.21,349.48s-8.89,6.69-9.35,7.74.71,2.94,2.27,2.41c1.56-.53,17.76-12.22,17.99-13.31.23-1.09-1.19-4.87-3.66-4.19-2.47.68-22.23,15.27-22.75,17.08-.52,1.81,2.9,5.77,4.35,5.52s14.02-8.84,14.02-8.84"/>
  </g>
  <g>
    <g>
      <g>
        <path class="cls-32" d="m27.89,162.03s5.65,17.35,5.83,16.5-2.59-17.26-2.59-17.26l-3.24.76Z"/>
        <path class="cls-13" d="m28.21,163.38s5.27,15.68,5.51,15.15-1.13-9.29-1.13-9.29"/>
        <path class="cls-1" d="m22.68,161.05l2.1-5s-6.32-7.66-4.43-8.52c1.89-.87,11.83-3.56,12.32-1.91.5,1.65-1.08,7.51-.33,8.96.56,1.08,3.44,3.75,3.44,3.75l.68,3.18-13.33,3.03-.45-3.48Z"/>
        <line class="cls-13" x1="23.19" y1="164.59" x2="36.46" y2="161.5"/>
        <path class="cls-31" d="m20.35,147.53c-.64.3-.33,1.39.36,2.69l12.01-2.59c.08-.86.09-1.58-.04-2.02-.5-1.65-10.44,1.05-12.32,1.91Z"/>
        <line class="cls-20" x1="24.77" y1="156.05" x2="32.54" y2="154.26"/>
        <line class="cls-20" x1="21.21" y1="149.88" x2="32.6" y2="147.63"/>
      </g>
      <path class="cls-13" d="m24.75,156.11s-5.2-7.44-4.4-8.58c.8-1.15,11.41-2.75,12.01-2.41"/>
    </g>
    <g>
      <g>
        <path class="cls-32" d="m724.26,347.46s-3.64,17.88-3.06,17.23,6.26-16.3,6.26-16.3l-3.2-.94Z"/>
        <path class="cls-13" d="m723.87,348.79s-3.14,16.24-2.67,15.9c.47-.34,3.59-8.64,3.59-8.64"/>
        <path class="cls-26" d="m720.21,344.03l4.29-3.31s-1.72-9.78.35-9.6c2.07.18,12.04,2.73,11.67,4.41-.38,1.68-4.64,6-4.71,7.64-.05,1.22,1.14,4.96,1.14,4.96l-.98,3.1-13.09-3.94,1.32-3.25Z"/>
        <line class="cls-13" x1="718.91" y1="347.37" x2="731.97" y2="351.23"/>
        <path class="cls-22" d="m724.84,331.12c-.71-.06-.97,1.04-1.01,2.52l11.72,3.67c.49-.71.86-1.33.96-1.78.38-1.68-9.6-4.23-11.67-4.41Z"/>
        <line class="cls-20" x1="724.49" y1="340.72" x2="732.13" y2="343"/>
        <line class="cls-20" x1="724.43" y1="333.59" x2="735.45" y2="337.26"/>
      </g>
      <path class="cls-13" d="m724.44,340.76s-.86-9.03.4-9.64c1.26-.6,11.28,3.23,11.64,3.83"/>
    </g>
    <g>
      <g>
        <path class="cls-32" d="m177.92,468.43s9.2,15.76,9.2,14.89c0-.86-6.19-16.32-6.19-16.32l-3.01,1.43Z"/>
        <path class="cls-13" d="m178.52,469.68s8.48,14.21,8.6,13.64-3.08-8.84-3.08-8.84"/>
        <path class="cls-3" d="m172.62,468.58l.99-5.33s-7.8-6.14-6.13-7.39c1.66-1.25,10.8-5.99,11.64-4.48.84,1.5.54,7.57,1.58,8.83.77.94,4.16,2.94,4.16,2.94l1.34,2.96-12.38,5.78-1.18-3.31Z"/>
        <line class="cls-13" x1="173.87" y1="471.93" x2="186.18" y2="466.1"/>
        <path class="cls-33" d="m167.47,455.86c-.57.43-.03,1.42.92,2.55l11.18-5.08c-.11-.85-.25-1.57-.47-1.96-.84-1.5-9.98,3.24-11.64,4.48Z"/>
        <line class="cls-20" x1="173.61" y1="463.25" x2="180.82" y2="459.86"/>
        <line class="cls-20" x1="168.81" y1="457.98" x2="179.47" y2="453.36"/>
      </g>
      <path class="cls-13" d="m173.6,463.31s-6.66-6.16-6.12-7.46,10.57-5.1,11.23-4.9"/>
    </g>
    <g>
      <g>
        <path class="cls-32" d="m487.79,30.97s-3.28,17.95-2.71,17.29c.56-.65,5.93-16.42,5.93-16.42l-3.21-.87Z"/>
        <path class="cls-13" d="m487.43,32.3s-2.81,16.3-2.35,15.95c.46-.35,3.42-8.71,3.42-8.71"/>
        <path class="cls-35" d="m483.67,27.63l4.22-3.4s-1.92-9.74.16-9.6c2.07.13,12.1,2.49,11.75,4.17-.34,1.69-4.52,6.09-4.55,7.73-.02,1.22,1.24,4.93,1.24,4.93l-.91,3.12-13.16-3.67,1.26-3.28Z"/>
        <line class="cls-13" x1="482.44" y1="30.99" x2="495.58" y2="34.58"/>
        <path class="cls-37" d="m488.05,14.62c-.71-.05-.95,1.06-.96,2.54l11.79,3.43c.47-.72.83-1.35.92-1.79.34-1.69-9.68-4.04-11.75-4.17Z"/>
        <line class="cls-20" x1="487.89" y1="24.23" x2="495.58" y2="26.35"/>
        <line class="cls-20" x1="487.68" y1="17.1" x2="498.78" y2="20.54"/>
      </g>
      <path class="cls-13" d="m487.84,24.27s-1.04-9.02.21-9.65c1.25-.63,11.34,3.01,11.71,3.59"/>
    </g>
  </g>
  <text class="cls-29" transform="translate(133.8 255.85) scale(.92 1)"><tspan x="0" y="0">TRUE &amp; FALSE</tspan></text>
  <text class="cls-27" transform="translate(130.8 253.85) scale(.92 1)"><tspan x="0" y="0">TRUE &amp; FALSE</tspan></text>
</svg>