<svg xmlns="http://www.w3.org/2000/svg" width="99.378" height="39.517" viewBox="0 0 99.378 39.517"><g transform="translate(0.8 0.59)"><g transform="translate(0 0.253)"><g transform="translate(-366.18 -10.701)"><path d="M463.706,18.134a7.162,7.162,0,0,0-2.186-5.25,7.155,7.155,0,0,0-5.248-2.188H373.624a7.155,7.155,0,0,0-5.248,2.188,7.162,7.162,0,0,0-2.186,5.25V40.928a7.467,7.467,0,0,0,7.434,7.438h82.648a7.467,7.467,0,0,0,7.434-7.438Z" fill="#0fdbcc"/></g><path d="M90.2,37.748H7.58a7.175,7.175,0,0,1-5.264-2.191,7.182,7.182,0,0,1-2.19-5.266V7.5a7.044,7.044,0,0,1,2.19-5.224A7.175,7.175,0,0,1,7.58.084H90.2a7.175,7.175,0,0,1,5.264,2.191A7.044,7.044,0,0,1,97.651,7.5V30.291A7.478,7.478,0,0,1,90.2,37.748Z" fill="none" stroke="#b0fff9" stroke-miterlimit="10" stroke-width="1.853"/><g transform="translate(-721.411 -21.696)"><path d="M755.906,38.981a7.5,7.5,0,0,0,.569,2.888,10.134,10.134,0,0,0,1.049,1.925,3.589,3.589,0,0,1,.743,1.378,2.7,2.7,0,0,0,1.224,2.253l.109,1.75q.066,1.072,1.377,1.466a3.024,3.024,0,0,0,.59.569.96.96,0,0,0,.459.131h1.334a.879.879,0,0,0,.459-.131,3.024,3.024,0,0,0,.59-.569,1.71,1.71,0,0,0,1.4-1.466l.087-1.75a2.723,2.723,0,0,0,1.246-2.253,3.439,3.439,0,0,1,.721-1.378,11.23,11.23,0,0,0,1.071-1.925,7.872,7.872,0,0,0,.547-2.888,6.037,6.037,0,0,0-1.99-4.594,6.781,6.781,0,0,0-9.6,0,6.037,6.037,0,0,0-1.99,4.594m1.705,0a4.54,4.54,0,0,1,1.531-3.413,4.9,4.9,0,0,1,3.542-1.422,5.2,5.2,0,0,1,3.63,1.422,4.633,4.633,0,0,1,1.465,3.413,5.751,5.751,0,0,1-.415,2.253,9.3,9.3,0,0,1-.962,1.553,4.667,4.667,0,0,0-.962,2.384,1.107,1.107,0,0,1-.656.919h-4.176a1.107,1.107,0,0,1-.656-.919,4.666,4.666,0,0,0-.962-2.384,9.3,9.3,0,0,1-.962-1.553A5.75,5.75,0,0,1,757.611,38.981Z" fill="#fff"/></g><g transform="translate(-721.411 -21.696)"><path d="M762.268,29.378v1.291a.437.437,0,1,0,.875,0V29.378q0-.416-.437-.416T762.268,29.378Z" fill="#fff"/></g><g transform="translate(-721.411 -21.696)"><path d="M757.633,30.3a.42.42,0,0,0-.153.591L758.136,32a.479.479,0,0,0,.372.241l.219-.066a.485.485,0,0,0,.153-.613l-.656-1.116Q758.048,30.1,757.633,30.3Z" fill="#fff"/></g><g transform="translate(-721.411 -21.696)"><path d="M755.425,35.284a.363.363,0,0,0,.372-.2q.241-.35-.153-.612l-1.115-.634a.477.477,0,0,0-.612.175.367.367,0,0,0,.175.569l1.115.656Z" fill="#fff"/></g><g transform="translate(-721.411 -21.696)"><path d="M753.02,39.506h1.268a.438.438,0,0,0,0-.875H753.02a.438.438,0,0,0,0,.875Z" fill="#fff"/></g><g transform="translate(-721.411 -21.696)"><path d="M755.8,43.05q-.153-.328-.59-.153l-1.115.634a.447.447,0,0,0-.175.591.538.538,0,0,0,.415.2l.2-.022,1.115-.678a.272.272,0,0,0,.2-.219A.358.358,0,0,0,755.8,43.05Z" fill="#fff"/></g><g transform="translate(-721.411 -21.696)"><path d="M770.183,42.9q-.394-.219-.569.153a.459.459,0,0,0-.065.35.4.4,0,0,0,.219.219l1.115.678.2.022a.363.363,0,0,0,.372-.2.372.372,0,0,0-.131-.591Z" fill="#fff"/></g><g transform="translate(-721.411 -21.696)"><path d="M772.392,39.506a.438.438,0,0,0,0-.875h-1.268a.438.438,0,0,0,0,.875Z" fill="#fff"/></g><g transform="translate(-721.411 -21.696)"><path d="M769.768,34.475q-.415.241-.153.612a.371.371,0,0,0,.35.2l.219-.044,1.137-.656a.333.333,0,0,0,.2-.241.4.4,0,0,0-.066-.328.367.367,0,0,0-.568-.175Z" fill="#fff"/></g><g transform="translate(-721.411 -21.696)"><path d="M767.931,30.888a.4.4,0,0,0-.175-.591.42.42,0,0,0-.59.153l-.634,1.116a.455.455,0,0,0,.153.613l.2.066a.379.379,0,0,0,.372-.241Z" fill="#fff"/></g><g transform="translate(-721.411 -21.696)"><path d="M780.482,44.166a3.1,3.1,0,0,0-1.137.175,2.92,2.92,0,0,0-.787.35l-.306.175.568.984.219-.131a3.157,3.157,0,0,1,.568-.241,2.475,2.475,0,0,1,.787-.131,1.219,1.219,0,0,1,.743.2.942.942,0,0,1,.306.787v.044h-.175l-1.574.175a6.22,6.22,0,0,0-.875.262q-.219.175-.656.613a1.944,1.944,0,0,0-.262.875,2.457,2.457,0,0,0,.262.919,2.092,2.092,0,0,0,.743.613,2.219,2.219,0,0,0,.918.219,2.365,2.365,0,0,0,.831-.131,2.621,2.621,0,0,0,.525-.35l.262-.35.087-.175h.044l-.044.131v.744h1.312V46.375a2.072,2.072,0,0,0-.612-1.6,2.278,2.278,0,0,0-1.749-.612m-1.137,4.047a.815.815,0,0,1,.175-.481,1.462,1.462,0,0,1,.525-.263,2.456,2.456,0,0,1,.568-.087l.831-.044v.131a1.667,1.667,0,0,1-.131.7,3.928,3.928,0,0,1-.437.569,1.046,1.046,0,0,1-.656.219.767.767,0,0,1-.656-.219.716.716,0,0,1-.219-.525m15.393-2.734a1.828,1.828,0,0,0-.831-.919,2.2,2.2,0,0,0-1.356-.394,2.833,2.833,0,0,0-1.487.394,2.415,2.415,0,0,0-1.006.984,3.238,3.238,0,0,0-.393,1.575,2.755,2.755,0,0,0,.393,1.444,2.9,2.9,0,0,0,1.05,1.094,3.243,3.243,0,0,0,1.618.394,2.906,2.906,0,0,0,.918-.131,2.379,2.379,0,0,0,.743-.262l.481-.306.131-.131-.568-.963-.175.131-.612.35a2.366,2.366,0,0,1-.831.131,2.03,2.03,0,0,1-.787-.175,1.771,1.771,0,0,1-.612-.481,1.453,1.453,0,0,1-.306-.831h3.936v-.35l.044-.219a2.568,2.568,0,0,0-.35-1.334m-2.186-.263a1.122,1.122,0,0,1,.787.328,1.453,1.453,0,0,1,.306.875h-2.493a1.713,1.713,0,0,1,.481-.875,1.337,1.337,0,0,1,.918-.328m16.6.263a1.967,1.967,0,0,0-.831-.919,2.3,2.3,0,0,0-1.377-.394,2.888,2.888,0,0,0-2.493,1.378,3.475,3.475,0,0,0-.35,1.575,2.94,2.94,0,0,0,.35,1.444,3.427,3.427,0,0,0,1.05,1.094,3.2,3.2,0,0,0,1.6.394,2.905,2.905,0,0,0,.918-.131,2,2,0,0,0,.743-.262l.481-.306.131-.131-.568-.963-.175.131-.612.35a2.255,2.255,0,0,1-.831.131,1.6,1.6,0,0,1-.722-.175,1.46,1.46,0,0,1-.612-.481,1.263,1.263,0,0,1-.35-.831h3.914v-.35l.044-.219a2.774,2.774,0,0,0-.306-1.334m-3.127.066a1.241,1.241,0,0,1,.918-.328.961.961,0,0,1,.765.328,1.262,1.262,0,0,1,.306.875h-2.471a2.282,2.282,0,0,1,.481-.875m7.959.044V44.21h-.262a1.45,1.45,0,0,0-.765.175,2.1,2.1,0,0,0-.612.525,4.023,4.023,0,0,0-.393.722V44.3h-1.312v5.622h1.356V47.644a1.682,1.682,0,0,1,.044-.437,1.066,1.066,0,0,1,.087-.438,5.87,5.87,0,0,1,.394-.7,1.672,1.672,0,0,1,.568-.394,3.01,3.01,0,0,1,.547-.088h.35m-16.114-2.822h-1.356v1.619h-.787v1.138h.7v2.341A2.145,2.145,0,0,0,796.727,49a1.9,1.9,0,0,0,.612.656,3.774,3.774,0,0,0,.743.262q.525.044.7.044h.35l.088-.044V48.738H799l-.481-.044a1.846,1.846,0,0,1-.481-.35,1.181,1.181,0,0,1-.175-.7V45.522h1.268V44.385h-1.268V42.766m4.132,0h-1.334v1.619h-.787v1.138h.7v2.341A2.007,2.007,0,0,0,800.881,49a1.694,1.694,0,0,0,.59.656,3.773,3.773,0,0,0,.743.262q.525.044.7.044h.35l.087-.044V48.738h-.219l-.481-.044a1.845,1.845,0,0,1-.481-.35,1.181,1.181,0,0,1-.175-.7V45.522h1.268V44.385H802V42.766m-13.709-.656h-1.4v6.059a2.149,2.149,0,0,0,.262,1.181,1.36,1.36,0,0,0,.7.525,5.26,5.26,0,0,0,.787.088h.306l.131-.044V48.738h-.219a.46.46,0,0,1-.393-.175.808.808,0,0,1-.175-.613Z" fill="#fff"/></g><g transform="translate(-721.411 -21.696)"><path d="M802.477,35.875l.044-.569a3.006,3.006,0,0,0-.306-1.4,2.036,2.036,0,0,0-.875-.941,2.424,2.424,0,0,0-1.378-.394,2.685,2.685,0,0,0-2.1.875,2.93,2.93,0,0,0-.831,2.166,3.032,3.032,0,0,0,.35,1.488,3.376,3.376,0,0,0,1.093,1.138,3.579,3.579,0,0,0,1.662.394,5.259,5.259,0,0,0,.787-.088l.634-.175.481-.263.306-.219.087-.088-.568-1.006-.044.044a.768.768,0,0,1-.262.175l-.35.175q-.087.044-.459.175l-.525.044a1.918,1.918,0,0,1-1.181-.394,1.507,1.507,0,0,1-.525-1.138h3.957m-2.558-2.188a1.22,1.22,0,0,1,.831.306,1.5,1.5,0,0,1,.35.875h-2.536a1.561,1.561,0,0,1,.437-.875,1.512,1.512,0,0,1,.918-.306m4.089-.634a3.169,3.169,0,0,0-.306.175.249.249,0,0,0-.131.087l.568.984.219-.131a4.26,4.26,0,0,1,.612-.263,2.353,2.353,0,0,1,.743-.131q1.137,0,1.137,1.006v.087h-.7l-1.268.175-.612.219-.525.35a3.521,3.521,0,0,0-.394.525,1.763,1.763,0,0,0-.131.7,1.67,1.67,0,0,0,.568,1.313,2.146,2.146,0,0,0,1.4.481,4.42,4.42,0,0,0,.7-.088l.481-.263.35-.306a1.018,1.018,0,0,0,.175-.263q.066-.087.044-.088h.044l-.044.875h1.334V34.869a2.15,2.15,0,0,0-.656-1.684,2.309,2.309,0,0,0-1.771-.613,3.054,3.054,0,0,0-.743.088,3.753,3.753,0,0,0-.612.175,2.093,2.093,0,0,0-.481.219m.875,4.222a.716.716,0,0,1-.219-.525q0-.919,1.924-.919h.262v.131a1.623,1.623,0,0,1-.394,1.05,1.084,1.084,0,0,1-.918.481.938.938,0,0,1-.656-.219m6.231-6.847h-1.443v6.278a2.37,2.37,0,0,0,.131.831,2.266,2.266,0,0,0,.306.525.7.7,0,0,0,.393.306,2.887,2.887,0,0,0,.481.175h.962V37.275h-.219a.512.512,0,0,1-.437-.175.808.808,0,0,1-.175-.613V30.428m-17.47,6.584-.044-.35L792.289,32.7h-1.531l2.1,5.8h1.705l2.077-5.8h-1.531l-1.2,3.609a1.987,1.987,0,0,0-.087.35l-.088.35v.175h-.044l-.044-.175m-6.756,0a1.508,1.508,0,0,1-.525-1.138h3.958l.044-.569a3,3,0,0,0-.306-1.4,2.035,2.035,0,0,0-.875-.941,2.424,2.424,0,0,0-1.377-.394,2.685,2.685,0,0,0-2.1.875,2.93,2.93,0,0,0-.831,2.166,3.283,3.283,0,0,0,.35,1.488,3.374,3.374,0,0,0,1.093,1.138,3.579,3.579,0,0,0,1.662.394,5.258,5.258,0,0,0,.787-.088l.634-.175.481-.263.306-.219.087-.088-.568-1.006-.044.044a.77.77,0,0,1-.262.175l-.328.175-.481.175-.525.044a1.918,1.918,0,0,1-1.181-.394m-.044-3.019a1.512,1.512,0,0,1,.918-.306,1.22,1.22,0,0,1,.831.306,1.5,1.5,0,0,1,.35.875h-2.536a1.561,1.561,0,0,1,.437-.875m-3.586-2.472a1.917,1.917,0,0,0-.984-.831,2.12,2.12,0,0,0-.612-.175,4.229,4.229,0,0,0-1.006-.087h-2.624V38.5h1.487V35.481h1.4l1.618,3.019h1.6l-1.64-3.019a1.14,1.14,0,0,0-.262-.394v-.044a1.588,1.588,0,0,0,.984-.831,2.352,2.352,0,0,0,.394-1.334,2.468,2.468,0,0,0-.35-1.356m-3.739.175h1.093a1.74,1.74,0,0,1,1.181.306,1.412,1.412,0,0,1,.306.963,1.128,1.128,0,0,1-.35.9,1.2,1.2,0,0,1-.918.35h-1.312Z" fill="#fff"/></g><g transform="translate(-721.411 -21.696)"><path d="M724.464,24.959a7.162,7.162,0,0,0-2.186,5.25V50.991a7.467,7.467,0,0,0,7.434,7.438h18.629V22.772H729.712A7.155,7.155,0,0,0,724.464,24.959Z" fill="#0c323d"/></g><g transform="translate(5.516 24.898)"><text transform="translate(0.066 8.553)" fill="#fff" font-size="9" font-family="MuseoSans-700, 'Museo Sans \37 00'" font-weight="700"><tspan x="0" y="0">Left</tspan></text></g></g></g></svg>