<svg xmlns="http://www.w3.org/2000/svg" width="40.2" height="40.2" viewBox="0 0 40.2 40.2"><g transform="translate(20.1 20.1)"><path d="M-10.35-19a8.3,8.3,0,0,0-6.1,2.5A8.324,8.324,0,0,0-19-10.4V10.45a8.267,8.267,0,0,0,2.55,6.05,8.3,8.3,0,0,0,6.1,2.5h20.8a8.241,8.241,0,0,0,6.05-2.5A8.349,8.349,0,0,0,19,10.45V-10.4a8.407,8.407,0,0,0-2.5-6.1A8.241,8.241,0,0,0,10.45-19Z" fill="#0fdbcc"/><path d="M19,10.45a8.349,8.349,0,0,1-2.5,6.05A8.241,8.241,0,0,1,10.45,19h-20.8a8.3,8.3,0,0,1-6.1-2.5A8.267,8.267,0,0,1-19,10.45V-10.4a8.324,8.324,0,0,1,2.55-6.1,8.3,8.3,0,0,1,6.1-2.5h20.8a8.241,8.241,0,0,1,6.05,2.5A8.407,8.407,0,0,1,19-10.4Z" fill="none" stroke="#b0fff9" stroke-miterlimit="10" stroke-width="2.2"/><g transform="translate(-642.2 -865)"><path d="M655.337,864.9a1.369,1.369,0,0,0-.455-1.05l-3.989-3.989v-4.584a1.5,1.5,0,0,0-.42-1.05,1.442,1.442,0,0,0-1.05-.455,1.369,1.369,0,0,0-1.05.455,1.442,1.442,0,0,0-.455,1.05v1.609l-2.974-2.974a3.7,3.7,0,0,0-2.729-1.085,3.776,3.776,0,0,0-2.729,1.085l-9.9,9.937a1.439,1.439,0,0,0,0,2.1,1.481,1.481,0,0,0,1.085.455,1.442,1.442,0,0,0,1.05-.455l9.9-9.9a.81.81,0,0,1,.595-.245.853.853,0,0,1,.63.245l9.9,9.9a1.442,1.442,0,0,0,1.05.455,1.481,1.481,0,0,0,1.085-.455A1.369,1.369,0,0,0,655.337,864.9Z" fill="#fff"/></g><g transform="translate(-642.2 -865)"><path d="M642.216,858.667a.793.793,0,0,0-.525.21l-8.713,8.713a.712.712,0,0,0-.21.525v6.368a2.626,2.626,0,0,0,.8,1.924,2.569,2.569,0,0,0,1.889.77H639.8v-6.683h4.864v6.683h4.3a2.687,2.687,0,0,0,1.924-.77,2.626,2.626,0,0,0,.8-1.924v-6.368a.893.893,0,0,0-.21-.525l-8.748-8.713A.712.712,0,0,0,642.216,858.667Z" fill="#fff"/></g></g></svg>