<svg xmlns="http://www.w3.org/2000/svg" width="40.2" height="40.2" viewBox="0 0 40.2 40.2"><g transform="translate(20.1 20.1)"><path d="M-10.4-19a8.324,8.324,0,0,0-6.1,2.55,8.3,8.3,0,0,0-2.5,6.1v20.8a8.241,8.241,0,0,0,2.5,6.05A8.407,8.407,0,0,0-10.4,19H10.45a8.349,8.349,0,0,0,6.05-2.5A8.241,8.241,0,0,0,19,10.45v-20.8a8.3,8.3,0,0,0-2.5-6.1A8.267,8.267,0,0,0,10.45-19Z" fill="#0fdbcc"/><path d="M19,10.45a8.241,8.241,0,0,1-2.5,6.05A8.349,8.349,0,0,1,10.45,19H-10.4a8.407,8.407,0,0,1-6.1-2.5A8.241,8.241,0,0,1-19,10.45v-20.8a8.3,8.3,0,0,1,2.5-6.1A8.324,8.324,0,0,1-10.4-19H10.45a8.267,8.267,0,0,1,6.05,2.55,8.3,8.3,0,0,1,2.5,6.1Z" fill="none" stroke="#b0fff9" stroke-miterlimit="10" stroke-width="2.2"/><g transform="translate(-594.4 -865)"><path d="M593.561,853.793a1.2,1.2,0,0,0-1.47.175l-5.214,4.2h-4.759a1.331,1.331,0,0,0-1.015.455,1.424,1.424,0,0,0-.42,1.05v10.672a1.544,1.544,0,0,0,.42,1.085,1.331,1.331,0,0,0,1.015.455h4.759l5.214,4.2a1.282,1.282,0,0,0,1.5.14,1.438,1.438,0,0,0,.77-1.365V855.192A1.456,1.456,0,0,0,593.561,853.793Z" fill="#fff"/></g><g transform="translate(-594.4 -865)"><path d="M602.379,864.99a11.884,11.884,0,0,0-3.289-8.538,1.507,1.507,0,0,0-1.155-.49,1.62,1.62,0,0,0-1.19.49,1.826,1.826,0,0,0-.49,1.295,1.781,1.781,0,0,0,.49,1.26,8.952,8.952,0,0,1,0,12,1.826,1.826,0,0,0-.49,1.295,1.781,1.781,0,0,0,.49,1.26,1.507,1.507,0,0,0,1.155.49,1.461,1.461,0,0,0,1.155-.525A11.935,11.935,0,0,0,602.379,864.99Z" fill="#fff"/></g><g transform="translate(-594.4 -865)"><path d="M602.134,851.938a1.567,1.567,0,0,0-1.19.525,1.778,1.778,0,0,0-.455,1.26,1.859,1.859,0,0,0,.455,1.26,14.925,14.925,0,0,1,0,20.085,1.778,1.778,0,0,0-.455,1.26,1.859,1.859,0,0,0,.455,1.26,1.53,1.53,0,0,0,1.155.525,1.62,1.62,0,0,0,1.19-.49,17.374,17.374,0,0,0,3.569-5.774,19.015,19.015,0,0,0,0-13.612,17.857,17.857,0,0,0-3.569-5.774A1.461,1.461,0,0,0,602.134,851.938Z" fill="#fff"/></g></g></svg>